<svg width="320.0000000000001" height="320" xmlns="http://www.w3.org/2000/svg" xmlns:svg="http://www.w3.org/2000/svg">
 <!-- Created with SVG-edit - http://svg-edit.googlecode.com/ -->
 <g stroke="null">
  <title>Layer 1</title>
  <rect stroke="#d4aaff" fill="#994cff" stroke-width="2" stroke-dasharray="null" stroke-linejoin="null" stroke-linecap="null" x="12.12759" y="22.09861" width="298.68751" height="242.40509" id="a_a_svg_6"/>
  <rect fill="#a466f4" stroke-width="0" stroke-dasharray="null" stroke-linejoin="null" stroke-linecap="null" x="208.54684" y="30.4375" width="51.04688" height="30.79687" id="a_a_svg_123" stroke="#000000"/>
  <rect stroke="#fbafff" transform="rotate(89.0655517578125 204.13803100585938,39.20221710205077) " id="a_a_svg_180" fill="#f484f4" stroke-width="0.5" stroke-dasharray="null" stroke-linejoin="null" stroke-linecap="null" x="195.74363" y="35.00604" width="16.78878" height="8.39233"/>
  <rect stroke="#000000" fill="#af7fe2" stroke-width="0" stroke-dasharray="null" stroke-linejoin="null" stroke-linecap="null" x="159.37534" y="-119.27036" width="0.18756" height="298.9896" transform="rotate(90.13925170898438 159.46911621093747,30.224441528320302) " id="a_a_svg_51"/>
  <rect stroke="#000000" transform="rotate(-90.31698608398438 70.81329345703125,145.66636657714844) " opacity="0.3" height="4.5679" width="232.28592" y="143.38241" x="-45.32966" stroke-linecap="null" stroke-linejoin="null" stroke-dasharray="null" stroke-width="0" fill="#e0418e" id="a_a_svg_111"/>
  <rect stroke="#000000" id="a_a_svg_183" fill="#ed34ed" stroke-width="0" stroke-dasharray="null" stroke-linejoin="null" stroke-linecap="null" x="61.5" y="22.46669" width="7.5" height="252.0833"/>
  <rect stroke="#fbafff" id="a_a_svg_181" transform="rotate(89.0655517578125 260.7958068847656,45.48353576660155) " fill="#f484f4" stroke-width="0.5" stroke-dasharray="null" stroke-linejoin="null" stroke-linecap="null" x="245.642" y="44.65847" width="30.30762" height="1.6501"/>
  <rect fill="#ffffff" stroke-width="0" stroke-dasharray="null" stroke-linejoin="null" stroke-linecap="null" x="287" y="31.99999" width="30.17187" height="238.00002" id="a_a_svg_211" stroke="#f9f2f2"/>
  <rect stroke="#000000" opacity="0.6" id="a_a_svg_74" height="18.66667" width="280.04166" y="11.66667" x="19.4323" stroke-linecap="null" stroke-linejoin="null" stroke-dasharray="null" stroke-width="0" fill="#ff007f"/>
  <rect id="a_a_svg_206" opacity="0.6" height="12.10417" width="285.5903" y="264.79167" x="15.8698" stroke-linecap="null" stroke-linejoin="null" stroke-dasharray="null" stroke-width="0" fill="#f779b6" stroke="#000000"/>
  <rect stroke="#000000" opacity="0.9" id="a_a_svg_144" fill="#f7a8ce" stroke-width="0" stroke-dasharray="null" stroke-linejoin="null" stroke-linecap="null" x="281.4668" y="30.74906" width="2.84183" height="246.60955"/>
  <ellipse stroke="#000000" id="a_a_svg_13" opacity="0.9" ry="78.15338" rx="42.34299" cy="153.5854" cx="149.34643" stroke-width="0" fill="#ff00ff"/>
  <rect stroke="#fbafff" fill="#f484f4" stroke-width="0.5" stroke-dasharray="null" stroke-linejoin="null" stroke-linecap="null" x="199.99998" y="61.13334" width="62.41668" height="215.49999" id="a_a_svg_48"/>
  <rect stroke="#000000" id="a_a_svg_57" fill="#ed34ed" stroke-width="0" stroke-dasharray="null" stroke-linejoin="null" stroke-linecap="null" x="227.33335" y="61.71669" width="1" height="214.5833"/>
  <rect stroke="#000000" opacity="0.1" id="a_a_svg_16" fill="#7f007f" stroke-width="0" stroke-dasharray="null" stroke-linejoin="null" stroke-linecap="null" x="266.25" y="58.30001" width="2.5" height="217.24998"/>
  <rect stroke="#000000" fill="#a466f4" stroke-width="0" stroke-dasharray="null" stroke-linejoin="null" stroke-linecap="null" x="264.33333" y="30.82084" width="18" height="246.89581" id="a_a_svg_44"/>
  <rect fill="#ffffff" stroke-width="0" stroke-dasharray="null" stroke-linejoin="null" stroke-linecap="null" x="2.90308" y="32.84512" width="23" height="239.00001" id="a_a_svg_210" stroke="#f9f2f2"/>
  <ellipse stroke="#000000" ry="26.42969" rx="27.03386" id="a_a_svg_60" cy="38.54112" cx="42.69427" opacity="0.8" stroke-linecap="null" stroke-linejoin="null" stroke-dasharray="null" stroke-width="0" fill="#dcc8f7"/>
  <rect stroke="#000000" fill="#f76cf7" stroke-width="0" stroke-dasharray="null" stroke-linejoin="null" stroke-linecap="null" x="24.41667" y="58.80001" width="16.83336" height="217.24999" id="a_a_svg_49"/>
  <ellipse stroke="#000000" id="a_a_svg_61" ry="24.89323" rx="26.1875" cy="38.20218" cx="42.68511" stroke-linecap="null" stroke-linejoin="null" stroke-dasharray="null" stroke-width="0" fill="#a466f4"/>
  <rect stroke="#000000" fill="#cc47cc" stroke-width="0" stroke-dasharray="null" stroke-linejoin="null" stroke-linecap="null" x="206.25" y="68.96669" width="16.5" height="204.8333" id="a_a_svg_73"/>
  <rect id="a_a_svg_107" stroke="#000000" opacity="0.6" height="16.60417" width="300.29166" y="250.45671" x="9.445" stroke-linecap="null" stroke-linejoin="null" stroke-dasharray="null" stroke-width="0" fill="#e0418e"/>
  <rect stroke="#000000" fill="#ed34ed" stroke-width="0" stroke-dasharray="null" stroke-linejoin="null" stroke-linecap="null" x="207" y="69.71669" width="15" height="207.0833" id="a_a_svg_43"/>
  <rect stroke="#000000" fill="#ff00ff" stroke-width="0" stroke-dasharray="null" stroke-linejoin="null" stroke-linecap="null" x="233.25" y="68.79998" width="25.75" height="209.00001" id="a_a_svg_42"/>
  <ellipse stroke="#000000" opacity="0.9" id="a_a_svg_126" ry="89.77838" rx="47.00348" cy="153.2343" cx="141.10491" stroke-width="0" fill="#ffaaaa"/>
  <rect stroke="#000000" fill="#f7a8ce" stroke-width="0" stroke-dasharray="null" stroke-linejoin="null" stroke-linecap="null" x="27.34568" y="58.31545" width="32.65433" height="218.48454" id="a_a_svg_46"/>
  <ellipse stroke="#000000" ry="89.77838" rx="45.22571" id="a_a_svg_1" cy="152.05602" cx="136.47271" stroke-width="0" fill="#ffd4aa"/>
  <rect stroke="#000000" id="a_a_svg_14" height="17" width="21.42661" y="196.65258" x="98.68226" stroke-linecap="null" stroke-linejoin="null" stroke-dasharray="null" stroke-width="0" fill="#ffffff"/>
  <path stroke="#000000" id="a_a_svg_8" d="m120.01643,188.49294c0,0 3.79687,5.0625 6.32812,4.42969c2.53125,-0.63281 7.27735,0 7.22576,-0.2195c-0.05158,-0.21951 5.43049,-4.21019 5.37891,-4.42969" opacity="0.5" stroke-linecap="null" stroke-linejoin="null" stroke-dasharray="null" stroke-width="0" fill="#ffd4aa"/>
  <path stroke="#000000" fill="#ffd4aa" stroke-width="0" stroke-dasharray="null" stroke-linejoin="null" stroke-linecap="null" d="m93.41938,172.30004c0,0 3.55981,13.54389 1.7799,16.73069c-1.7799,3.1868 -1.7799,7.967 -2.19524,7.18794c-0.41533,-0.77906 11.09475,1.57576 10.67942,0.7967" id="a_a_svg_4"/>
  <path stroke="#000000" fill="#ffd4aa" stroke-width="0" stroke-dasharray="null" stroke-linejoin="null" stroke-linecap="null" d="m95.44963,205.97584c0,0 5.01916,13.5439 2.50958,16.73069c-2.50958,3.1868 -2.50958,7.967 -3.09519,7.18794c-0.5856,-0.77906 15.6431,1.57576 15.0575,0.7967" id="a_a_svg_5" transform="rotate(174.20925903320312 102.39276123046875,218.41366577148438) "/>
  <ellipse stroke="#000000" id="a_a_svg_22" fill="#7f00ff" stroke-width="0" stroke-dasharray="null" stroke-linejoin="null" stroke-linecap="null" cx="121.98125" cy="225.96875" rx="26.46875" ry="19.59375"/>
  <ellipse stroke="#000000" fill="#ffd4aa" stroke-width="0" stroke-dasharray="null" stroke-linejoin="null" stroke-linecap="null" cx="126.2" cy="224" id="a_a_svg_10" rx="29" ry="21"/>
  <ellipse stroke="#000000" id="a_a_svg_7" ry="22.12499" rx="44.53126" cy="123.13594" cx="136.10704" stroke-width="0" fill="#ffd4aa"/>
  <ellipse stroke="#000000" fill="#7f007f" stroke-width="0" stroke-dasharray="null" stroke-linejoin="null" stroke-linecap="null" cx="119.7" cy="139.5" id="a_a_svg_11" rx="12.50001" ry="9.5" opacity="0.1"/>
  <path stroke="#000000" id="a_a_svg_134" fill="#964040" stroke-width="0" stroke-dasharray="null" stroke-linejoin="null" stroke-linecap="null" d="m118.71496,134.16315l13.23748,7.88746l-14.0625,5.625c0,0 -10.98748,-7.88746 -6.48748,-10.69996c4.5,-2.8125 7.3125,-2.8125 7.3125,-2.8125z"/>
  <path stroke="#000000" fill="#ffffff" stroke-width="0" stroke-dasharray="null" stroke-linejoin="null" stroke-linecap="null" d="m117.76252,133.92504l13.23748,7.88746l-14.0625,5.625c0,0 -10.98748,-7.88746 -6.48748,-10.69996c4.5,-2.8125 7.3125,-2.8125 7.3125,-2.8125z" id="a_a_svg_3"/>
  <path stroke="#000000" id="a_a_svg_79" fill="#0000ff" stroke-width="0" stroke-dasharray="null" stroke-linejoin="null" stroke-linecap="null" d="m100.03308,125.15826l24.8,-2.57143l14,9l11,9l-49.8,-15.42857z"/>
  <path stroke="#000000" fill="#7f00ff" stroke-width="0" stroke-dasharray="null" stroke-linejoin="null" stroke-linecap="null" d="m96.95254,123.81889l24.8,-2.57143l14,9l11,9l-49.8,-15.42857z" id="a_a_svg_12"/>
  <ellipse stroke="#000000" ry="2" id="a_a_svg_23" cy="138.8" cx="117.2" stroke-linecap="null" stroke-linejoin="null" stroke-dasharray="null" stroke-width="0" fill="#000000"/>
  <ellipse stroke="#000000" ry="2.37305" rx="10.08545" id="a_a_svg_24" cy="195.46976" cx="110.5163" stroke-linecap="null" stroke-linejoin="null" stroke-dasharray="null" stroke-width="0" fill="#ffd4aa"/>
  <ellipse stroke="#000000" transform="rotate(-12.225204467773438 110.7536010742186,208.0469055175782) " id="a_a_svg_25" ry="2.37305" rx="10.08545" cy="208.04691" cx="110.7536" stroke-linecap="null" stroke-linejoin="null" stroke-dasharray="null" stroke-width="0" fill="#ffd4aa"/>
  <ellipse stroke="#000000" id="a_a_svg_26" transform="rotate(-8.13706111907959 101.82388305664091,194.18136596679682) " ry="2.9244" rx="9.03526" cy="194.18138" cx="101.82388" stroke-linecap="null" stroke-linejoin="null" stroke-dasharray="null" stroke-width="0" fill="#ffd4aa"/>
  <ellipse stroke="#000000" id="a_a_svg_27" transform="rotate(4.891592025756836 102.29849243164031,208.6569824218751) " ry="2.9244" rx="9.03526" cy="208.65697" cx="102.29849" stroke-linecap="null" stroke-linejoin="null" stroke-dasharray="null" stroke-width="0" fill="#ffd4aa"/>
  <path stroke="#000000" fill="#ffd4aa" stroke-width="0" stroke-dasharray="null" stroke-linejoin="null" stroke-linecap="null" d="m72.12182,172.64451c0,0 -0.7864,4.11328 10.61635,5.0625c11.40274,0.94922 23.98508,3.79688 20.44629,-1.58203c-3.53878,-5.37891 -6.29117,-9.80859 -7.47076,-20.88281c-1.17959,-11.07422 -3.93198,-17.08594 -4.15337,-17.24216c-0.22139,-0.15622 -19.43851,34.6445 -19.43851,34.6445z" id="a_a_svg_2"/>
  <ellipse stroke="#000000" opacity="0.9" id="a_a_svg_127" ry="10.00603" rx="30.91712" cy="235.28811" cx="154.82777" stroke-linecap="null" stroke-linejoin="null" stroke-dasharray="null" stroke-width="0" fill="#ffaaaa"/>
  <ellipse stroke="#000000" id="a_a_svg_59" ry="8.8632" rx="30.64924" cy="238.03819" cx="156.34571" stroke-linecap="null" stroke-linejoin="null" stroke-dasharray="null" stroke-width="0" fill="#994cff"/>
  <ellipse stroke="#000000" id="a_a_svg_64" ry="3.80975" rx="8.67776" cy="194.30246" cx="111.04157" stroke-linecap="null" stroke-linejoin="null" stroke-dasharray="null" stroke-width="0" fill="#ffd4aa"/>
  <polygon stroke="null" fill="#7f007f" id="a_a_svg_70"/>
  <polygon stroke="null" fill="#7f007f" id="a_a_svg_71"/>
  <rect stroke="#ff007f" id="a_a_svg_91" height="11.28815" width="32.17123" y="181.49041" x="91.38607" stroke-linecap="null" stroke-linejoin="null" stroke-dasharray="null" stroke-width="0.1" fill="#7f00ff"/>
  <path stroke="#000000" transform="rotate(-98.0065689086914 109.35929870605467,178.67953491210938) " id="a_a_svg_92" d="m94.05763,194.08793l15.30167,-30.81679l15.30167,30.81679l-30.60334,0z" stroke-linecap="null" stroke-linejoin="null" stroke-dasharray="null" stroke-width="0" fill="#ffd4aa"/>
  <ellipse stroke="#000000" opacity="0.1" ry="3.95085" rx="4.51526" id="a_a_svg_94" cy="141.56739" cx="123.50438" stroke-linecap="null" stroke-linejoin="null" stroke-dasharray="null" stroke-width="0" fill="#ff007f"/>
  <ellipse stroke="#000000" ry="8.46611" rx="9.03052" id="a_a_svg_95" cy="184.07433" cx="124.86249" stroke-linecap="null" stroke-linejoin="null" stroke-dasharray="null" stroke-width="0.1" fill="#7f00ff"/>
  <ellipse stroke="#000000" id="a_a_svg_96" ry="7.15651" rx="8.5543" cy="183.71717" cx="123.19572" stroke-linecap="null" stroke-linejoin="null" stroke-dasharray="null" stroke-width="0" fill="#ffd4aa"/>
  <ellipse stroke="#000000" id="a_a_svg_97" ry="7.15651" rx="5.57793" cy="183.00284" cx="122.83856" stroke-linecap="null" stroke-linejoin="null" stroke-dasharray="null" stroke-width="0" fill="#7f00ff"/>
  <ellipse stroke="#000000" id="a_a_svg_98" ry="7.03746" rx="6.29226" cy="183.59811" cx="124.74343" stroke-linecap="null" stroke-linejoin="null" stroke-dasharray="null" stroke-width="0" fill="#ffd4aa"/>
  <ellipse stroke="#000000" id="a_a_svg_99" ry="7.15651" rx="7.36376" cy="183.47906" cx="125.1006" stroke-linecap="null" stroke-linejoin="null" stroke-dasharray="null" stroke-width="0" fill="#ffd4aa"/>
  <ellipse stroke="#000000" id="a_a_svg_100" ry="6.56124" rx="7.2447" cy="184.07434" cx="124.98155" stroke-linecap="null" stroke-linejoin="null" stroke-dasharray="null" stroke-width="0.1" fill="#7f00ff"/>
  <ellipse stroke="#000000" id="a_a_svg_101" ry="4.89447" rx="5.81605" cy="183.59812" cx="124.50533" stroke-linecap="null" stroke-linejoin="null" stroke-dasharray="null" stroke-width="0" fill="#ffd4aa"/>
  <ellipse stroke="#000000" id="a_a_svg_102" ry="4.18014" rx="4.38739" cy="184.31244" cx="124.98154" stroke-linecap="null" stroke-linejoin="null" stroke-dasharray="null" stroke-width="0.1" fill="#7f00ff"/>
  <ellipse stroke="#000000" id="a_a_svg_103" ry="4.2992" rx="4.14928" cy="184.19339" cx="124.26721" stroke-linecap="null" stroke-linejoin="null" stroke-dasharray="null" stroke-width="0" fill="#ffd4aa"/>
  <ellipse stroke="#000000" id="a_a_svg_105" opacity="0.1" ry="2.5222" rx="2.84849" cy="141.09116" cx="124.21871" stroke-linecap="null" stroke-linejoin="null" stroke-dasharray="null" stroke-width="0" fill="#ff007f"/>
  <ellipse stroke="#000000" id="a_a_svg_106" opacity="0.5" ry="1.92692" rx="2.25322" cy="141.21022" cx="124.81398" stroke-linecap="null" stroke-linejoin="null" stroke-dasharray="null" fill="#ff007f"/>
  <ellipse stroke="#000000" ry="0.73665" rx="4.15203" id="a_a_svg_118" cy="191.94203" cx="123.22976" stroke-linecap="null" stroke-linejoin="null" stroke-dasharray="null" stroke-width="0" fill="#7f00ff"/>
  <ellipse stroke="#000000" ry="3.29289" rx="4.03218" id="a_a_svg_136" cy="80.88233" cx="147.2382" stroke-linecap="null" stroke-linejoin="null" stroke-dasharray="null" stroke-width="0" fill="#f7c18f"/>
  <ellipse stroke="#000000" id="a_a_svg_129" fill="#ff00ff" stroke-width="0" stroke-dasharray="null" stroke-linejoin="null" stroke-linecap="null" cx="122.90414" cy="62.62603" rx="32.56761" ry="22.78381"/>
  <ellipse stroke="#000000" id="a_a_svg_119" fill="#7f00ff" stroke-width="0" stroke-dasharray="null" stroke-linejoin="null" stroke-linecap="null" cx="127.98381" cy="61.67359" rx="32.56761" ry="22.78381"/>
  <ellipse stroke="#ff6dff" id="a_a_svg_120" fill="#994cff" stroke-width="0.2" stroke-dasharray="null" stroke-linejoin="null" stroke-linecap="null" cx="143.14617" cy="51.86266" rx="35.24332" ry="12.97287"/>
  <ellipse stroke="#000000" id="a_a_svg_130" fill="#ff00ff" stroke-width="0" stroke-dasharray="null" stroke-linejoin="null" stroke-linecap="null" cx="167.49235" cy="82.83886" rx="12.24894" ry="16.85752"/>
  <ellipse stroke="#000000" id="a_a_svg_122" fill="#7f00ff" stroke-width="0" stroke-dasharray="null" stroke-linejoin="null" stroke-linecap="null" cx="166.92794" cy="81.71005" rx="12.24894" ry="16.85752"/>
  <ellipse stroke="#7f007f" id="a_a_svg_216" fill="#994cff" stroke-width="0" stroke-dasharray="null" stroke-linejoin="null" stroke-linecap="null" cx="155.14617" cy="50.36266" rx="35.24332" ry="13.47287"/>
  <path stroke="#000000" opacity="0.5" id="a_a_svg_131" transform="rotate(21.296310424804688 160.51843261718747,69.3254547119141) " d="m154.82338,90.40117l5.69505,-42.15143l5.69505,42.15143l-11.39009,0l-0.00001,0z" stroke-linecap="null" stroke-linejoin="null" stroke-dasharray="null" stroke-width="0" fill="#ff0000"/>
  <path stroke="#000000" transform="rotate(22.458948135375977 157.49542236328125,75.36260986328122) " id="a_a_svg_117" d="m149.44515,101.30033l8.05026,-51.87543l8.05026,51.87543l-16.10052,0z" stroke-linecap="null" stroke-linejoin="null" stroke-dasharray="null" stroke-width="0" fill="#ffd4aa"/>
  <ellipse stroke="#000000" id="a_a_svg_145" ry="1.51311" rx="1.57802" cy="90.13721" cx="156.3922" stroke-linecap="null" stroke-linejoin="null" stroke-dasharray="null" stroke-width="0" fill="#e09de0"/>
  <path stroke="#000000" transform="rotate(15.478888511657715 161.75939941406256,70.57531738281254) " id="a_a_svg_132" d="m160.23588,90.33665l1.52353,-39.52268l1.52353,39.52268l-3.04707,0l0.00001,0z" stroke-linecap="null" stroke-linejoin="null" stroke-dasharray="null" stroke-width="0" fill="#e09de0"/>
  <path stroke="#000000" id="a_a_svg_135" transform="rotate(30.75926971435547 155.70361328125014,70.36193847656247) " d="m154.67912,87.25452l1.0245,-33.78519l1.0245,33.78519l-2.04899,0l0,0l-0.00001,0z" stroke-linecap="null" stroke-linejoin="null" stroke-dasharray="null" stroke-width="0" fill="#f7c18f"/>
  <ellipse stroke="#000000" fill="#ffaaaa" stroke-width="0" stroke-dasharray="null" stroke-linejoin="null" stroke-linecap="null" opacity="0.5" cx="176.31559" cy="175.64687" id="a_a_svg_15" ry="8.4375"/>
  <path stroke="#ef7373" fill="#ffd4aa" stroke-width="0" stroke-dasharray="null" stroke-linejoin="null" stroke-linecap="null" d="m160.4185,165.34285l6.02431,-38.76285l6.02431,38.76285l-12.04861,0l-0.00001,0z" id="a_a_svg_17" transform="rotate(9.013467788696289 166.44281005859352,145.96142578124994) "/>
  <rect stroke="#000000" fill="#994cff" stroke-width="0" stroke-dasharray="null" stroke-linejoin="null" stroke-linecap="null" x="164.97846" y="225.86302" width="20.39906" height="14.19153" id="a_a_svg_20" transform="rotate(47.324459075927734 175.177978515625,232.95877075195315) "/>
  <path stroke="#000000" fill="#f9b1b1" stroke-width="0" stroke-dasharray="null" stroke-linejoin="null" stroke-linecap="null" d="m92.76648,119.20949l8.7144,0.77693l-9.25753,0.55408c0,0 -7.2332,-0.77693 -4.27079,-1.05396c2.96241,-0.27704 4.81391,-0.27704 4.81391,-0.27704l0.00001,-0.00001z" id="a_a_svg_21" transform="rotate(109.00371551513672 94.36047363281251,119.87498474121094) "/>
  <rect fill="#3f2c2c" stroke-width="0.05" stroke-dasharray="null" stroke-linejoin="null" stroke-linecap="null" x="106.08227" y="201.08538" width="13.95959" height="0.28884" id="a_a_svg_31" transform="rotate(-5.079995155334473 113.06207275390614,201.22979736328128) " stroke="#000000"/>
  <path stroke="#000000" fill="#ffffff" stroke-width="0.3" stroke-dasharray="null" stroke-linejoin="null" stroke-linecap="null" d="m105.79136,203.70895l1.5017,-2.62797l1.5017,2.62797l-3.00339,0l-0.00001,0z" id="a_a_svg_30" transform="rotate(175.6641387939453 107.29306030273439,202.39498901367188) "/>
  <rect stroke="#000000" fill="#d820d8" stroke-width="0" stroke-dasharray="null" stroke-linejoin="null" stroke-linecap="null" x="36" y="59.61172" width="23" height="217.18827" id="a_a_svg_38"/>
  <ellipse stroke="#000000" id="a_a_svg_55" ry="6.66661" rx="6" cy="256.1998" cx="244.99998" opacity="0.9" stroke-linecap="null" stroke-linejoin="null" stroke-dasharray="null" stroke-width="0" fill="#ffffff"/>
  <ellipse stroke="#000000" id="a_a_svg_90" ry="13.59375" rx="13.03125" cy="249.91873" cx="52.37396" opacity="0.8" stroke-linecap="null" stroke-linejoin="null" stroke-dasharray="null" stroke-width="0" fill="#ffffff"/>
  <ellipse stroke="#000000" id="a_a_svg_89" ry="11.90625" rx="12.49219" cy="250.39791" cx="50.36614" stroke-linecap="null" stroke-linejoin="null" stroke-dasharray="null" stroke-width="0" fill="#ff00ff"/>
  <rect transform="rotate(-0.4144178330898285 263.9033508300851,155.3194580078092) " stroke="#000000" id="a_a_svg_176" opacity="0.9" fill="#f74f9d" stroke-width="0" stroke-dasharray="null" stroke-linejoin="null" stroke-linecap="null" x="263.32617" y="32.01469" width="1.15433" height="246.60955"/>
  <rect fill="#e1ccf9" stroke-width="0" stroke-dasharray="null" stroke-linejoin="null" stroke-linecap="null" x="157.92473" y="114.93875" width="3.00007" height="300.88862" id="a_a_svg_39" transform="rotate(90.13925170898438 159.4247741699219,265.38305664062494) " stroke="#000000"/>
  <rect fill="#8116fc" stroke-width="0" stroke-dasharray="null" stroke-linejoin="null" stroke-linecap="null" x="157.21797" y="128.62679" width="3.01465" height="285.48964" transform="rotate(90.13925170898438 158.72528076171878,271.37161254882807) " id="a_a_svg_40" stroke="#000000"/>
  <rect stroke="#f9f2f2" id="a_a_svg_147" height="1.77979" width="61.50147" y="56.70578" x="231.92134" opacity="0.9" stroke-linecap="null" stroke-linejoin="null" stroke-dasharray="null" stroke-width="0" fill="#e006e0"/>
  <ellipse stroke="#000000" ry="20.55469" rx="19.99219" cy="57.33279" cx="213.31927" stroke-linecap="null" stroke-linejoin="null" stroke-dasharray="null" stroke-width="0" fill="#dcc8f7" id="a_a_svg_66"/>
  <ellipse stroke="#000000" ry="17.60156" rx="18.1875" cy="54.01509" cx="215.95208" stroke-linecap="null" stroke-linejoin="null" stroke-dasharray="null" stroke-width="0" fill="#a466f4" id="a_a_svg_67"/>
  <ellipse stroke="#000000" ry="20.13802" rx="20.15886" cy="108.08279" cx="248.06927" opacity="0.8" stroke-linecap="null" stroke-linejoin="null" stroke-dasharray="null" stroke-width="0" fill="#dcc8f7" id="a_a_svg_63"/>
  <ellipse stroke="#000000" ry="17.26823" rx="18.4375" cy="107.18175" cx="248.03541" opacity="0.8" stroke-linecap="null" stroke-linejoin="null" stroke-dasharray="null" stroke-width="0" fill="#ff007f" id="a_a_svg_65"/>
  <rect fill="#f76cf7" stroke-width="0" stroke-dasharray="null" stroke-linejoin="null" stroke-linecap="null" x="286.77017" y="31.60667" width="1.56252" height="244.24995" id="a_a_svg_50" stroke="#000000"/>
  <ellipse stroke="#000000" ry="12.63802" rx="13.15886" cy="171.5828" cx="258.23594" opacity="0.8" stroke-linecap="null" stroke-linejoin="null" stroke-dasharray="null" stroke-width="0" fill="#dcc8f7" id="a_a_svg_37"/>
  <rect stroke="#000000" id="a_a_svg_18" opacity="0.1" fill="#7f007f" stroke-width="0" stroke-dasharray="null" stroke-linejoin="null" stroke-linecap="null" x="28.5" y="59.05001" width="2.5" height="217.24998"/>
  <ellipse stroke="#000000" ry="8.66667" rx="8.66667" cy="77.61667" cx="49.00001" opacity="0.4" stroke-linecap="null" stroke-linejoin="null" stroke-dasharray="null" stroke-width="0" fill="#ffffff" id="a_a_svg_68"/>
  <ellipse stroke="#000000" ry="8.66667" rx="8.66667" id="a_a_svg_28" cy="76.72604" cx="48.10939" opacity="0.4" stroke-linecap="null" stroke-linejoin="null" stroke-dasharray="null" stroke-width="0" fill="#ff007f"/>
  <ellipse stroke="#000000" ry="8.66667" rx="8.66667" cy="138.60104" cx="47.73439" opacity="0.4" stroke-linecap="null" stroke-linejoin="null" stroke-dasharray="null" stroke-width="0" fill="#ffffff" id="a_a_svg_69"/>
  <ellipse stroke="#000000" id="a_a_svg_35" ry="8.66667" rx="8.66667" cy="137.75729" cx="47.17189" opacity="0.4" stroke-linecap="null" stroke-linejoin="null" stroke-dasharray="null" stroke-width="0" fill="#ff007f"/>
  <ellipse stroke="#000000" id="a_a_svg_45" ry="6.66661" rx="6" cy="118.6373" cx="214.08332" opacity="0.4" stroke-linecap="null" stroke-linejoin="null" stroke-dasharray="null" stroke-width="0" fill="#ffffff"/>
  <ellipse stroke="#000000" id="a_a_svg_47" ry="6.66661" rx="6" cy="144.53313" cx="247.66665" opacity="0.9" stroke-linecap="null" stroke-linejoin="null" stroke-dasharray="null" stroke-width="0" fill="#ffffff"/>
  <ellipse stroke="#000000" id="a_a_svg_52" ry="6.66661" rx="6" cy="178.17897" cx="213.77082" opacity="0.4" stroke-linecap="null" stroke-linejoin="null" stroke-dasharray="null" stroke-width="0" fill="#ffffff"/>
  <ellipse stroke="#000000" id="a_a_svg_53" ry="6.66661" rx="6" cy="210.53313" cx="245.99998" opacity="0.4" stroke-linecap="null" stroke-linejoin="null" stroke-dasharray="null" stroke-width="0" fill="#ffffff"/>
  <ellipse stroke="#000000" id="a_a_svg_54" ry="6.66661" rx="6" cy="227.55396" cx="215.10415" opacity="0.6" stroke-linecap="null" stroke-linejoin="null" stroke-dasharray="null" stroke-width="0" fill="#ffffff"/>
  <rect stroke="#000000" id="a_a_svg_58" fill="#8116fc" stroke-width="0" stroke-dasharray="null" stroke-linejoin="null" stroke-linecap="null" x="159.09814" y="-139.16877" width="2.99904" height="299.41146" transform="rotate(90.13925170898438 160.59765624999997,10.536972045898446) "/>
  <ellipse stroke="#000000" ry="8.66667" rx="8.66667" cy="209.52292" cx="47.50001" opacity="0.4" stroke-linecap="null" stroke-linejoin="null" stroke-dasharray="null" stroke-width="0" fill="#ffffff" id="a_a_svg_72"/>
  <ellipse stroke="#000000" id="a_a_svg_34" ry="8.66667" rx="9.25" cy="208.49166" cx="46.42188" opacity="0.4" stroke-linecap="null" stroke-linejoin="null" stroke-dasharray="null" stroke-width="0" fill="#ff007f"/>
  <ellipse stroke="#000000" ry="8.60156" rx="10.10417" cy="170.84842" cx="257.86875" opacity="0.8" stroke-linecap="null" stroke-linejoin="null" stroke-dasharray="null" stroke-width="0" fill="#8116fc" id="a_a_svg_62"/>
  <ellipse stroke="#000000" ry="17.63802" rx="14.99219" cy="215.99946" cx="238.31927" opacity="0.8" stroke-linecap="null" stroke-linejoin="null" stroke-dasharray="null" stroke-width="0" fill="#dcc8f7" id="a_a_svg_33"/>
  <ellipse stroke="#000000" ry="13.60156" rx="13.27083" cy="215.84842" cx="238.20208" opacity="0.8" stroke-linecap="null" stroke-linejoin="null" stroke-dasharray="null" stroke-width="0" fill="#ff007f" id="a_a_svg_36"/>
  <polygon stroke="#000000" transform="rotate(-10.907504081726074 24.089172363281236,46.87850952148439) " opacity="0.1" stroke-width="0" points="24.08917236328125,41.444549560546875 24.956008911132812,45.50807189941406 27.595611572265625,45.59571838378906 25.491744995117188,48.19476318359375 26.256271362304688,52.31245422363281 24.08917236328125,49.855224609375 21.922073364257812,52.31245422363281 22.686607360839844,48.19476318359375 20.582733154296875,45.59571838378906 23.222335815429688,45.50807189941406 24.08917236328125,41.444549560546875 24.956008911132812,45.50807189941406 " fill="#bfbfbf" id="a_a_svg_75"/>
  <ellipse stroke="#000000" id="a_a_svg_80" ry="7.10411" rx="6.375" cy="228.49148" cx="215.54165" opacity="0.4" stroke-linecap="null" stroke-linejoin="null" stroke-dasharray="null" stroke-width="0" fill="#3f007f"/>
  <ellipse stroke="#000000" id="a_a_svg_41" ry="11.63802" rx="11.65886" cy="247.2703" cx="199.92344" opacity="0.8" stroke-linecap="null" stroke-linejoin="null" stroke-dasharray="null" stroke-width="0" fill="#dcc8f7"/>
  <ellipse stroke="#000000" id="a_a_svg_76" ry="7.10156" rx="7.60417" cy="246.91092" cx="198.99376" opacity="0.8" stroke-linecap="null" stroke-linejoin="null" stroke-dasharray="null" stroke-width="0" fill="#8116fc"/>
  <ellipse stroke="#000000" id="a_a_svg_77" ry="7.38536" rx="7.21875" cy="144.39772" cx="248.4479" opacity="0.4" stroke-linecap="null" stroke-linejoin="null" stroke-dasharray="null" stroke-width="0" fill="#ff007f"/>
  <ellipse stroke="#000000" id="a_a_svg_78" ry="7.10411" rx="7.21875" cy="256.05398" cx="245.6354" opacity="0.4" stroke-linecap="null" stroke-linejoin="null" stroke-dasharray="null" stroke-width="0" fill="#ff007f"/>
  <ellipse stroke="#000000" id="a_a_svg_81" ry="7.10411" rx="6.375" cy="178.99148" cx="214.41664" opacity="0.4" stroke-linecap="null" stroke-linejoin="null" stroke-dasharray="null" stroke-width="0" fill="#3f007f"/>
  <ellipse stroke="#000000" id="a_a_svg_82" ry="7.10411" rx="6.375" cy="119.36647" cx="215.54164" opacity="0.4" stroke-linecap="null" stroke-linejoin="null" stroke-dasharray="null" stroke-width="0" fill="#3f007f"/>
  <ellipse stroke="#f9f2f2" id="a_a_svg_83" ry="4.29161" rx="4.125" cy="122.55397" cx="276.10415" opacity="0.4" stroke-linecap="null" stroke-linejoin="null" stroke-dasharray="null" stroke-width="0.2" fill="#ffaad4"/>
  <path stroke="#000000" transform="rotate(176.7574920654297 98.43084716796875,200.3414306640625) " id="a_a_svg_85" d="m97.09602,203.45604l1.33483,-6.22925l1.33483,6.22925l-2.66967,0l0.00001,0z" stroke-linecap="null" stroke-linejoin="null" stroke-dasharray="null" stroke-width="0" fill="#ffffff"/>
  <rect stroke="#000000" fill="#3f2c2c" stroke-width="0.05" stroke-dasharray="null" stroke-linejoin="null" stroke-linecap="null" x="98.173" y="201.72154" width="7.78378" height="0.24335" id="a_a_svg_29"/>
  <ellipse stroke="#000000" transform="rotate(21.176231384277344 94.78324890136707,119.5529022216797) " ry="5.87678" rx="0.7831" id="a_a_svg_86" cy="119.5529" cx="94.78325" stroke-linecap="null" stroke-linejoin="null" stroke-dasharray="null" stroke-width="0" fill="#ffaaaa"/>
  <ellipse stroke="#000000" id="a_a_svg_87" transform="rotate(21.176231384277344 95.02055358886722,120.26481628417967) " ry="5.87678" rx="0.7831" cy="120.26481" cx="95.02056" stroke-linecap="null" stroke-linejoin="null" stroke-dasharray="null" stroke-width="0" fill="#ffd4aa"/>
  <path stroke="#000000" id="a_a_svg_88" transform="rotate(27.517370223999023 157.72900390624997,70.69390869140625) " d="m157.60438,88.31716l0.12463,-35.24651l0.12463,35.24651l-0.24926,0l0,0z" stroke-linecap="null" stroke-linejoin="null" stroke-dasharray="null" stroke-width="0" fill="#ffffff"/>
  <ellipse stroke="#000000" ry="3.1875" rx="3.375" id="a_a_svg_93" cy="255.46098" cx="90.05861" opacity="0.2" stroke-linecap="null" stroke-linejoin="null" stroke-dasharray="null" stroke-width="0" fill="#00ffff"/>
  <ellipse stroke="#000000" id="a_a_svg_115" ry="3.9375" rx="4.5" cy="257.3477" cx="172.93361" opacity="0.2" stroke-linecap="null" stroke-linejoin="null" stroke-dasharray="null" stroke-width="0" fill="#00ffff"/>
  <ellipse stroke="#000000" id="a_a_svg_109" ry="3.375" rx="3.375" cy="257.33599" cx="172.7461" opacity="0.3" stroke-linecap="null" stroke-linejoin="null" stroke-dasharray="null" stroke-width="0" fill="#f780f7"/>
  <ellipse stroke="#000000" id="a_a_svg_110" ry="2.30859" rx="2.0332" cy="255.4024" cx="90.21681" opacity="0.3" stroke-linecap="null" stroke-linejoin="null" stroke-dasharray="null" stroke-width="0" fill="#f47ff4"/>
  <ellipse stroke="#000000" id="a_a_svg_124" ry="4.97911" rx="5.15625" cy="105.6998" cx="16.92706" opacity="0.4" stroke-linecap="null" stroke-linejoin="null" stroke-dasharray="null" stroke-width="0" fill="#ffffff"/>
  <ellipse stroke="#000000" id="a_a_svg_125" ry="3.375" rx="3.375" cy="186.25004" cx="66.37501" opacity="0.2" stroke-linecap="null" stroke-linejoin="null" stroke-dasharray="null" stroke-width="0" fill="#ff00ff"/>
  <ellipse stroke="#000000" id="a_a_svg_128" ry="3.375" rx="3.375" cy="119.31253" cx="66.37501" opacity="0.2" stroke-linecap="null" stroke-linejoin="null" stroke-dasharray="null" stroke-width="0" fill="#ff00ff"/>
  <ellipse id="a_a_svg_138" ry="3.1875" rx="3.375" cy="47.87502" cx="209.62502" opacity="0.2" stroke-linecap="null" stroke-linejoin="null" stroke-dasharray="null" stroke-width="0" fill="#00ffff" stroke="#000000"/>
  <ellipse stroke="#000000" id="a_a_svg_140" ry="4.97911" rx="4.59375" cy="172.55397" cx="18.30206" opacity="0.4" stroke-linecap="null" stroke-linejoin="null" stroke-dasharray="null" stroke-width="0" fill="#ffffff"/>
  <ellipse stroke="#000000" id="a_a_svg_143" ry="4.97911" rx="4.59375" cy="241.74147" cx="17.73955" opacity="0.4" stroke-linecap="null" stroke-linejoin="null" stroke-dasharray="null" stroke-width="0" fill="#ffffff"/>
  <ellipse stroke="#8585f7" ry="3.02563" rx="3.11462" id="a_a_svg_146" cy="40.8657" cx="232.3663" opacity="0.8" stroke-linecap="null" stroke-linejoin="null" stroke-dasharray="null" stroke-width="0.2" fill="#c45488"/>
  <rect stroke="#f9f2f2" id="a_a_svg_148" height="0.8627" width="45.28565" y="44.99875" x="248.13716" opacity="0.9" stroke-linecap="null" stroke-linejoin="null" stroke-dasharray="null" stroke-width="0" fill="#e006e0"/>
  <rect stroke="#f9f2f2" id="a_a_svg_149" height="0.56113" width="35.54628" y="34.06049" x="257.86668" opacity="0.9" stroke-linecap="null" stroke-linejoin="null" stroke-dasharray="null" stroke-width="0" fill="#e006e0"/>
  <ellipse stroke="#c7a5ff" id="a_a_svg_162" ry="1.4207" rx="1.42522" cy="54.8749" cx="248.98487" opacity="0.1" stroke-linecap="null" stroke-linejoin="null" stroke-dasharray="null" stroke-width="0.2" fill="#7f00ff"/>
  <ellipse stroke="#c7a5ff" id="a_a_svg_164" ry="1.4207" rx="1.42522" cy="43.0834" cx="252.56613" opacity="0.1" stroke-linecap="null" stroke-linejoin="null" stroke-dasharray="null" stroke-width="0.2" fill="#7f00ff"/>
  <ellipse stroke="#c7a5ff" id="a_a_svg_165" ry="1.4207" rx="1.42522" cy="32.4609" cx="261.46631" opacity="0.1" stroke-linecap="null" stroke-linejoin="null" stroke-dasharray="null" stroke-width="0.2" fill="#ff007f"/>
  <ellipse stroke="#c7a5ff" id="a_a_svg_166" ry="1.4207" rx="1.42522" cy="54.8862" cx="256.92786" opacity="0.1" stroke-linecap="null" stroke-linejoin="null" stroke-dasharray="null" stroke-width="0.2" fill="#ff007f"/>
  <ellipse stroke="#c7a5ff" id="a_a_svg_167" ry="1.4207" rx="1.42522" cy="54.8862" cx="240.77631" opacity="0.1" stroke-linecap="null" stroke-linejoin="null" stroke-dasharray="null" stroke-width="0.2" fill="#ff007f"/>
  <rect stroke="#f9f2f2" id="a_a_svg_168" height="0.16068" width="6.22152" y="35.06162" x="257.99737" opacity="0.8" stroke-linecap="null" stroke-linejoin="null" stroke-dasharray="null" stroke-width="0" fill="#f9c5f9"/>
  <rect stroke="#f9f2f2" id="a_a_svg_169" height="0.16068" width="15.75727" y="46.62466" x="248.46161" opacity="0.8" stroke-linecap="null" stroke-linejoin="null" stroke-dasharray="null" stroke-width="0" fill="#f9c5f9"/>
  <rect stroke="#f9f2f2" id="a_a_svg_170" height="0.16068" width="30.87433" y="58.73832" x="233.60109" opacity="0.8" stroke-linecap="null" stroke-linejoin="null" stroke-dasharray="null" stroke-width="0" fill="#f9c5f9"/>
  <polygon stroke="#000000" id="a_a_svg_171" opacity="0.1" stroke-width="0" points="48.6485595703125,48.890533447265625 49.654449462890625,51.48182678222656 52.717498779296875,51.53770446777344 50.276123046875,53.19511413574219 51.163299560546875,55.82093811035156 48.6485595703125,54.25398254394531 46.133819580078125,55.82093811035156 47.02099609375,53.19511413574219 44.579620361328125,51.53770446777344 47.642669677734375,51.48182678222656 48.6485595703125,48.890533447265625 49.654449462890625,51.48182678222656 " fill="#bfbfbf"/>
  <polygon stroke="#000000" transform="rotate(26.314777374267578 29.262084960937504,22.69924163818359) " id="a_a_svg_172" opacity="0.1" stroke-width="0" points="29.2620849609375,17.265289306640625 30.05938720703125,21.328811645507812 32.487274169921875,21.416458129882812 30.552154541015625,24.0155029296875 31.255355834960938,28.133193969726562 29.2620849609375,25.67596435546875 27.268814086914062,28.133193969726562 27.972015380859375,24.0155029296875 26.036895751953125,21.416458129882812 28.46478271484375,21.328811645507812 29.2620849609375,17.265289306640625 30.05938720703125,21.328811645507812 " fill="#bfbfbf"/>
  <polygon stroke="#000000" id="a_a_svg_173" opacity="0.1" stroke-width="0" points="61.56298828125,34.540740966796875 62.36029052734375,38.60426330566406 64.78817749023438,38.69190979003906 62.853057861328125,41.29095458984375 63.55625915527344,45.40864562988281 61.56298828125,42.951416015625 59.56971740722656,45.40864562988281 60.272918701171875,41.29095458984375 58.337799072265625,38.69190979003906 60.76568603515625,38.60426330566406 61.56298828125,34.540740966796875 62.36029052734375,38.60426330566406 " fill="#bfbfbf"/>
  <polygon stroke="#000000" transform="rotate(-30.906599044799805 55.42437744140627,22.90908050537109) " id="a_a_svg_174" opacity="0.1" stroke-width="0" points="55.42437744140625,17.475128173828125 56.36073303222656,21.538650512695312 59.212066650390625,21.626296997070312 56.93943786621094,24.225341796875 57.765289306640625,28.343032836914062 55.42437744140625,25.88580322265625 53.083465576171875,28.343032836914062 53.90931701660156,24.225341796875 51.636688232421875,21.626296997070312 54.48802185058594,21.538650512695312 55.42437744140625,17.475128173828125 56.36073303222656,21.538650512695312 " fill="#bfbfbf"/>
  <polygon stroke="#000000" transform="rotate(14.924762725830078 19.374389648437457,32.42049407958985) " id="a_a_svg_175" opacity="0.1" stroke-width="0" points="19.3743896484375,26.986541748046875 19.72844696044922,31.050064086914062 20.806610107421875,31.137710571289062 19.947280883789062,33.73675537109375 20.259552001953125,37.85444641113281 19.3743896484375,35.397216796875 18.489234924316406,37.85444641113281 18.801498413085938,33.73675537109375 17.942169189453125,31.137710571289062 19.02033233642578,31.050064086914062 19.3743896484375,26.986541748046875 19.72844696044922,31.050064086914062 " fill="#bfbfbf"/>
  <polygon stroke="null" opacity="0.1" fill="#bfbfbf" id="a_a_svg_177"/>
  <ellipse stroke="#000000" id="a_a_svg_182" ry="16.58756" rx="15.86475" cy="34.64261" cx="35.21002" stroke-linecap="null" stroke-linejoin="null" stroke-dasharray="null" stroke-width="0" fill="#ffffff"/>
  <ellipse stroke="#000000" id="a_a_svg_184" ry="19.19352" rx="16.14014" cy="36.72382" cx="35.5958" stroke-linecap="null" stroke-linejoin="null" stroke-dasharray="null" stroke-width="0" fill="#a466f4"/>
  <rect stroke="#000000" transform="rotate(-4.474902629852295 22.381340026855522,36.356964111328125) " id="a_a_svg_185" height="15.89941" width="6.40723" y="28.40726" x="19.17772" stroke-linecap="null" stroke-linejoin="null" stroke-dasharray="null" stroke-width="0" fill="#a466f4"/>
  <path stroke="#f9f2f2" id="a_a_svg_186" d="m25.75876,39.96599l0.09731,-0.33365l0,0.16682l0.03902,0l0,-0.26677l0.07781,0l0,-0.13377l-0.04866,0l0.09731,-0.33365l0.09732,0.33365l-0.04866,0l0,0.13377l0.07781,0l0,0.26677l0.03902,0l0,-0.16682l0.09732,0.33365l-0.09732,0.33365l0,-0.16683l-0.03902,0l0,0.26677l-0.07781,0l0,0.13377l0.04866,0l-0.09732,0.33365l-0.09731,-0.33365l0.04866,0l0,-0.13377l-0.07781,0l0,-0.26677l-0.03902,0l0,0.16683l-0.09731,-0.33365z" opacity="0.8" stroke-linecap="null" stroke-linejoin="null" stroke-dasharray="null" stroke-width="0.2" fill="#ffffff"/>
  <path stroke="#f9f2f2" id="a_a_svg_187" d="m64.50246,37.63836l0.09732,-0.33364l0,0.16682l0.03901,0l0,-0.26678l0.07781,0l0,-0.13377l-0.04865,0l0.09731,-0.33365l0.09732,0.33365l-0.04866,0l0,0.13377l0.07781,0l0,0.26678l0.03902,0l0,-0.16682l0.09731,0.33364l-0.09731,0.33365l0,-0.16682l-0.03902,0l0,0.26677l-0.07781,0l0,0.13377l0.04866,0l-0.09732,0.33365l-0.09731,-0.33365l0.04865,0l0,-0.13377l-0.07781,0l0,-0.26677l-0.03901,0l0,0.16682l-0.09732,-0.33365z" opacity="0.8" stroke-linecap="null" stroke-linejoin="null" stroke-dasharray="null" stroke-width="0.2" fill="#ffffff"/>
  <path stroke="#f9f2f2" id="a_a_svg_188" d="m39.87468,49.27649l0.09732,-0.33364l0,0.16682l0.03901,0l0,-0.26678l0.07781,0l0,-0.13377l-0.04865,0l0.09731,-0.33365l0.09732,0.33365l-0.04866,0l0,0.13377l0.07781,0l0,0.26678l0.03902,0l0,-0.16682l0.09731,0.33364l-0.09731,0.33365l0,-0.16682l-0.03902,0l0,0.26677l-0.07781,0l0,0.13377l0.04866,0l-0.09732,0.33365l-0.09731,-0.33365l0.04865,0l0,-0.13377l-0.07781,0l0,-0.26677l-0.03901,0l0,0.16682l-0.09732,-0.33365z" opacity="0.8" stroke-linecap="null" stroke-linejoin="null" stroke-dasharray="null" stroke-width="0.2" fill="#ffffff"/>
  <path stroke="#f9f2f2" id="a_a_svg_189" d="m18.02503,40.64174l0.09732,-0.33364l0,0.16682l0.03901,0l0,-0.26678l0.07781,0l0,-0.13377l-0.04865,0l0.09731,-0.33365l0.09732,0.33365l-0.04866,0l0,0.13377l0.07781,0l0,0.26678l0.03902,0l0,-0.16682l0.09731,0.33364l-0.09731,0.33365l0,-0.16682l-0.03902,0l0,0.26677l-0.07781,0l0,0.13377l0.04866,0l-0.09732,0.33365l-0.09731,-0.33365l0.04865,0l0,-0.13377l-0.07781,0l0,-0.26677l-0.03901,0l0,0.16682l-0.09732,-0.33365z" opacity="0.8" stroke-linecap="null" stroke-linejoin="null" stroke-dasharray="null" stroke-width="0.2" fill="#ffffff"/>
  <path stroke="#f9f2f2" id="a_a_svg_190" d="m52.11347,41.76801l0.09732,-0.33364l0,0.16682l0.03901,0l0,-0.26678l0.07781,0l0,-0.13377l-0.04865,0l0.09731,-0.33365l0.09732,0.33365l-0.04866,0l0,0.13377l0.07781,0l0,0.26678l0.03902,0l0,-0.16682l0.09731,0.33364l-0.09731,0.33365l0,-0.16682l-0.03902,0l0,0.26677l-0.07781,0l0,0.13377l0.04866,0l-0.09732,0.33365l-0.09731,-0.33365l0.04865,0l0,-0.13377l-0.07781,0l0,-0.26677l-0.03901,0l0,0.16682l-0.09732,-0.33365z" opacity="0.8" stroke-linecap="null" stroke-linejoin="null" stroke-dasharray="null" stroke-width="0.2" fill="#ffffff"/>
  <path stroke="#f9f2f2" id="a_a_svg_191" d="m46.78246,28.5531l0.09732,-0.33364l0,0.16682l0.03901,0l0,-0.26678l0.07781,0l0,-0.13377l-0.04865,0l0.09731,-0.33365l0.09732,0.33365l-0.04866,0l0,0.13377l0.07781,0l0,0.26678l0.03902,0l0,-0.16682l0.09731,0.33364l-0.09731,0.33365l0,-0.16682l-0.03902,0l0,0.26677l-0.07781,0l0,0.13377l0.04866,0l-0.09732,0.33365l-0.09731,-0.33365l0.04865,0l0,-0.13377l-0.07781,0l0,-0.26677l-0.03901,0l0,0.16682l-0.09732,-0.33365z" opacity="0.8" stroke-linecap="null" stroke-linejoin="null" stroke-dasharray="null" stroke-width="0.2" fill="#ffffff"/>
  <path stroke="#f9f2f2" id="a_a_svg_192" d="m24.40722,52.80545l0.09732,-0.33364l0,0.16682l0.03901,0l0,-0.26678l0.07781,0l0,-0.13377l-0.04865,0l0.09731,-0.33365l0.09732,0.33365l-0.04866,0l0,0.13377l0.07781,0l0,0.26678l0.03902,0l0,-0.16682l0.09731,0.33364l-0.09731,0.33365l0,-0.16682l-0.03902,0l0,0.26677l-0.07781,0l0,0.13377l0.04866,0l-0.09732,0.33365l-0.09731,-0.33365l0.04865,0l0,-0.13377l-0.07781,0l0,-0.26677l-0.03901,0l0,0.16682l-0.09732,-0.33365z" opacity="0.8" stroke-linecap="null" stroke-linejoin="null" stroke-dasharray="null" stroke-width="0.2" fill="#ffffff"/>
  <path stroke="#f9f2f2" transform="rotate(36.12563705444336 54.178298950195305,56.03408813476562) " id="a_a_svg_193" d="m53.9155,56.03409l0.09732,-0.33364l0,0.16682l0.03901,0l0,-0.26678l0.07781,0l0,-0.13377l-0.04865,0l0.09731,-0.33365l0.09732,0.33365l-0.04866,0l0,0.13377l0.07781,0l0,0.26678l0.03902,0l0,-0.16682l0.09731,0.33364l-0.09731,0.33365l0,-0.16682l-0.03902,0l0,0.26677l-0.07781,0l0,0.13377l0.04866,0l-0.09732,0.33365l-0.09731,-0.33365l0.04865,0l0,-0.13377l-0.07781,0l0,-0.26677l-0.03901,0l0,0.16682l-0.09732,-0.33365z" opacity="0.8" stroke-linecap="null" stroke-linejoin="null" stroke-dasharray="null" stroke-width="0.2" fill="#ffffff"/>
  <path stroke="#f9f2f2" id="a_a_svg_194" d="m35.59483,32.08207l0.09732,-0.33364l0,0.16682l0.03901,0l0,-0.26678l0.07781,0l0,-0.13377l-0.04865,0l0.09731,-0.33365l0.09732,0.33365l-0.04866,0l0,0.13377l0.07781,0l0,0.26678l0.03902,0l0,-0.16682l0.09731,0.33364l-0.09731,0.33365l0,-0.16682l-0.03902,0l0,0.26677l-0.07781,0l0,0.13377l0.04866,0l-0.09732,0.33365l-0.09731,-0.33365l0.04865,0l0,-0.13377l-0.07781,0l0,-0.26677l-0.03901,0l0,0.16682l-0.09732,-0.33365z" opacity="0.8" stroke-linecap="null" stroke-linejoin="null" stroke-dasharray="null" stroke-width="0.2" fill="#ffffff"/>
  <path stroke="#f9f2f2" id="a_a_svg_195" d="m40.09991,18.04123l0.09732,-0.33364l0,0.16682l0.03901,0l0,-0.26678l0.07781,0l0,-0.13377l-0.04865,0l0.09731,-0.33365l0.09732,0.33365l-0.04866,0l0,0.13377l0.07781,0l0,0.26678l0.03902,0l0,-0.16682l0.09731,0.33364l-0.09731,0.33365l0,-0.16682l-0.03902,0l0,0.26677l-0.07781,0l0,0.13377l0.04866,0l-0.09732,0.33365l-0.09731,-0.33365l0.04865,0l0,-0.13377l-0.07781,0l0,-0.26677l-0.03901,0l0,0.16682l-0.09732,-0.33365z" opacity="0.8" stroke-linecap="null" stroke-linejoin="null" stroke-dasharray="null" stroke-width="0.2" fill="#ffffff"/>
  <path stroke="#f9f2f2" id="a_a_svg_196" d="m59.47175,24.12309l0.05561,-0.33364l0,0.16682l0.02229,0l0,-0.26678l0.04446,0l0,-0.13377l-0.0278,0l0.05561,-0.33365l0.05561,0.33365l-0.02781,0l0,0.13377l0.04446,0l0,0.26678l0.0223,0l0,-0.16682l0.05561,0.33364l-0.05561,0.33365l0,-0.16682l-0.0223,0l0,0.26677l-0.04446,0l0,0.13377l0.02781,0l-0.05561,0.33365l-0.05561,-0.33365l0.0278,0l0,-0.13377l-0.04446,0l0,-0.26677l-0.02229,0l0,0.16682l-0.05561,-0.33365z" opacity="0.8" stroke-linecap="null" stroke-linejoin="null" stroke-dasharray="null" stroke-width="0.2" fill="#ffffff"/>
  <path stroke="#d4aaff" id="a_a_svg_197" d="m51.38767,18.04126l0.09732,-0.33364l0,0.16682l0.03901,0l0,-0.26678l0.07781,0l0,-0.13377l-0.04865,0l0.09731,-0.33365l0.09732,0.33365l-0.04866,0l0,0.13377l0.07781,0l0,0.26678l0.03902,0l0,-0.16682l0.09731,0.33364l-0.09731,0.33365l0,-0.16682l-0.03902,0l0,0.26677l-0.07781,0l0,0.13377l0.04866,0l-0.09732,0.33365l-0.09731,-0.33365l0.04865,0l0,-0.13377l-0.07781,0l0,-0.26677l-0.03901,0l0,0.16682l-0.09732,-0.33365z" opacity="0.8" stroke-linecap="null" stroke-linejoin="null" stroke-dasharray="null" stroke-width="0.2" fill="#aad4ff"/>
  <path stroke="#d4aaff" id="a_a_svg_198" d="m61.7994,48.17525l0.09732,-0.33364l0,0.16682l0.03901,0l0,-0.26678l0.07781,0l0,-0.13377l-0.04865,0l0.09731,-0.33365l0.09732,0.33365l-0.04866,0l0,0.13377l0.07781,0l0,0.26678l0.03902,0l0,-0.16682l0.09731,0.33364l-0.09731,0.33365l0,-0.16682l-0.03902,0l0,0.26677l-0.07781,0l0,0.13377l0.04866,0l-0.09732,0.33365l-0.09731,-0.33365l0.04865,0l0,-0.13377l-0.07781,0l0,-0.26677l-0.03901,0l0,0.16682l-0.09732,-0.33365z" opacity="0.8" stroke-linecap="null" stroke-linejoin="null" stroke-dasharray="null" stroke-width="0.2" fill="#aad4ff"/>
  <path stroke="#d4aaff" id="a_a_svg_199" d="m34.96915,55.18315l0.09732,-0.33364l0,0.16682l0.03901,0l0,-0.26678l0.07781,0l0,-0.13377l-0.04865,0l0.09731,-0.33365l0.09732,0.33365l-0.04866,0l0,0.13377l0.07781,0l0,0.26678l0.03902,0l0,-0.16682l0.09731,0.33364l-0.09731,0.33365l0,-0.16682l-0.03902,0l0,0.26677l-0.07781,0l0,0.13377l0.04866,0l-0.09732,0.33365l-0.09731,-0.33365l0.04865,0l0,-0.13377l-0.07781,0l0,-0.26677l-0.03901,0l0,0.16682l-0.09732,-0.33365z" opacity="0.8" stroke-linecap="null" stroke-linejoin="null" stroke-dasharray="null" stroke-width="0.2" fill="#aad4ff"/>
  <path stroke="#d4aaff" id="a_a_svg_200" d="m41.87694,39.66565l0.09732,-0.33364l0,0.16682l0.03901,0l0,-0.26678l0.07781,0l0,-0.13377l-0.04865,0l0.09731,-0.33365l0.09732,0.33365l-0.04866,0l0,0.13377l0.07781,0l0,0.26678l0.03902,0l0,-0.16682l0.09731,0.33364l-0.09731,0.33365l0,-0.16682l-0.03902,0l0,0.26677l-0.07781,0l0,0.13377l0.04866,0l-0.09732,0.33365l-0.09731,-0.33365l0.04865,0l0,-0.13377l-0.07781,0l0,-0.26677l-0.03901,0l0,0.16682l-0.09732,-0.33365z" opacity="0.8" stroke-linecap="null" stroke-linejoin="null" stroke-dasharray="null" stroke-width="0.2" fill="#aad4ff"/>
  <path stroke="#d4aaff" id="a_a_svg_201" d="m26.45955,30.55538l0.09732,-0.33364l0,0.16682l0.03901,0l0,-0.26678l0.07781,0l0,-0.13377l-0.04865,0l0.09731,-0.33365l0.09732,0.33365l-0.04866,0l0,0.13377l0.07781,0l0,0.26678l0.03902,0l0,-0.16682l0.09731,0.33364l-0.09731,0.33365l0,-0.16682l-0.03902,0l0,0.26677l-0.07781,0l0,0.13377l0.04866,0l-0.09732,0.33365l-0.09731,-0.33365l0.04865,0l0,-0.13377l-0.07781,0l0,-0.26677l-0.03901,0l0,0.16682l-0.09732,-0.33365z" opacity="0.8" stroke-linecap="null" stroke-linejoin="null" stroke-dasharray="null" stroke-width="0.2" fill="#aad4ff"/>
  <path stroke="#d4aaff" id="a_a_svg_202" d="m30.76441,20.04352l0.04171,-0.33364l0,0.16682l0.01672,0l0,-0.26678l0.03335,0l0,-0.13377l-0.02085,0l0.04171,-0.33365l0.04171,0.33365l-0.02085,0l0,0.13377l0.03335,0l0,0.26678l0.01672,0l0,-0.16682l0.04171,0.33364l-0.04171,0.33365l0,-0.16682l-0.01672,0l0,0.26677l-0.03335,0l0,0.13377l0.02085,0l-0.04171,0.33365l-0.04171,-0.33365l0.02085,0l0,-0.13377l-0.03335,0l0,-0.26677l-0.01672,0l0,0.16682l-0.04171,-0.33365z" opacity="0.8" stroke-linecap="null" stroke-linejoin="null" stroke-dasharray="null" stroke-width="0.2" fill="#aad4ff"/>
  <path id="a_a_svg_104" stroke="#f9f2f2" d="m268.31671,39.47503l0.09732,-0.33364l0,0.16682l0.03901,0l0,-0.26678l0.07781,0l0,-0.13377l-0.04865,0l0.09731,-0.33365l0.09732,0.33365l-0.04866,0l0,0.13377l0.07781,0l0,0.26678l0.03902,0l0,-0.16682l0.09731,0.33364l-0.09731,0.33365l0,-0.16682l-0.03902,0l0,0.26677l-0.07781,0l0,0.13377l0.04866,0l-0.09732,0.33365l-0.09731,-0.33365l0.04865,0l0,-0.13377l-0.07781,0l0,-0.26677l-0.03901,0l0,0.16682l-0.09732,-0.33365z" opacity="0.8" stroke-linecap="null" stroke-linejoin="null" stroke-dasharray="null" stroke-width="0.2" fill="#ffffff"/>
  <path id="a_a_svg_113" stroke="#f9f2f2" transform="rotate(-1.9383249282836914 270.3815307617184,53.741119384766634) " d="m270.11874,53.74111l0.09732,-0.33364l0,0.16682l0.03901,0l0,-0.26678l0.07781,0l0,-0.13377l-0.04865,0l0.09731,-0.33365l0.09732,0.33365l-0.04866,0l0,0.13377l0.07781,0l0,0.26678l0.03902,0l0,-0.16682l0.09731,0.33364l-0.09731,0.33365l0,-0.16682l-0.03902,0l0,0.26677l-0.07781,0l0,0.13377l0.04866,0l-0.09732,0.33365l-0.09731,-0.33365l0.04865,0l0,-0.13377l-0.07781,0l0,-0.26677l-0.03901,0l0,0.16682l-0.09732,-0.33365z" opacity="0.8" stroke-linecap="null" stroke-linejoin="null" stroke-dasharray="null" stroke-width="0.2" fill="#ffffff"/>
  <path id="a_a_svg_114" stroke="#f9f2f2" d="m267.24884,63.14617l0.09732,-0.33364l0,0.16682l0.03901,0l0,-0.26678l0.07781,0l0,-0.13377l-0.04865,0l0.09731,-0.33365l0.09732,0.33365l-0.04866,0l0,0.13377l0.07781,0l0,0.26678l0.03902,0l0,-0.16682l0.09731,0.33364l-0.09731,0.33365l0,-0.16682l-0.03902,0l0,0.26677l-0.07781,0l0,0.13377l0.04866,0l-0.09732,0.33365l-0.09731,-0.33365l0.04865,0l0,-0.13377l-0.07781,0l0,-0.26677l-0.03901,0l0,0.16682l-0.09732,-0.33365z" opacity="0.8" stroke-linecap="null" stroke-linejoin="null" stroke-dasharray="null" stroke-width="0.2" fill="#ffffff"/>
  <path stroke="#f9f2f2" id="a_a_svg_116" d="m274.32318,68.34712l0.48772,0.68177l0,-0.34088l0.1955,0l0,0.54515l0.38994,0l0,0.27335l-0.24381,0l0.48767,0.68179l0.48772,-0.68179l-0.24386,0l0,-0.27335l0.38994,0l0,-0.54515l0.19555,0l0,0.34088l0.48767,-0.68177l-0.48767,-0.68179l0,0.34088l-0.19555,0l0,-0.54513l-0.38994,0l0,-0.27335l0.24386,0l-0.48772,-0.68179l-0.48767,0.68179l0.24381,0l0,0.27335l-0.38994,0l0,0.54513l-0.1955,0l0,-0.34088l-0.48772,0.68179z" opacity="0.8" stroke-linecap="null" stroke-linejoin="null" stroke-dasharray="null" stroke-width="0.2" fill="#ffffff"/>
  <path id="a_a_svg_137" stroke="#f9f2f2" d="m278.99542,50.15374l0.09732,-0.33364l0,0.16682l0.03901,0l0,-0.26678l0.07781,0l0,-0.13377l-0.04865,0l0.09731,-0.33365l0.09732,0.33365l-0.04866,0l0,0.13377l0.07781,0l0,0.26678l0.03902,0l0,-0.16682l0.09731,0.33364l-0.09731,0.33365l0,-0.16682l-0.03902,0l0,0.26677l-0.07781,0l0,0.13377l0.04866,0l-0.09732,0.33365l-0.09731,-0.33365l0.04865,0l0,-0.13377l-0.07781,0l0,-0.26677l-0.03901,0l0,0.16682l-0.09732,-0.33365z" opacity="0.8" stroke-linecap="null" stroke-linejoin="null" stroke-dasharray="null" stroke-width="0.2" fill="#ffffff"/>
  <path id="a_a_svg_150" stroke="#f9f2f2" d="m282.55499,53.71331l0.09732,-0.33364l0,0.16682l0.03901,0l0,-0.26678l0.07781,0l0,-0.13377l-0.04865,0l0.09731,-0.33365l0.09732,0.33365l-0.04866,0l0,0.13377l0.07781,0l0,0.26678l0.03902,0l0,-0.16682l0.09731,0.33364l-0.09731,0.33365l0,-0.16682l-0.03902,0l0,0.26677l-0.07781,0l0,0.13377l0.04866,0l-0.09732,0.33365l-0.09731,-0.33365l0.04865,0l0,-0.13377l-0.07781,0l0,-0.26677l-0.03901,0l0,0.16682l-0.09732,-0.33365z" opacity="0.8" stroke-linecap="null" stroke-linejoin="null" stroke-dasharray="null" stroke-width="0.2" fill="#ffffff"/>
  <path id="a_a_svg_151" stroke="#f9f2f2" d="m277.15631,103.60662l0.09732,-0.33364l0,0.16682l0.03901,0l0,-0.26678l0.07781,0l0,-0.13377l-0.04865,0l0.09731,-0.33365l0.09732,0.33365l-0.04866,0l0,0.13377l0.07781,0l0,0.26678l0.03902,0l0,-0.16682l0.09731,0.33364l-0.09731,0.33365l0,-0.16682l-0.03902,0l0,0.26677l-0.07781,0l0,0.13377l0.04866,0l-0.09732,0.33365l-0.09731,-0.33365l0.04865,0l0,-0.13377l-0.07781,0l0,-0.26677l-0.03901,0l0,0.16682l-0.09732,-0.33365z" opacity="0.8" stroke-linecap="null" stroke-linejoin="null" stroke-dasharray="null" stroke-width="0.2" fill="#ffffff"/>
  <path id="a_a_svg_152" stroke="#f9f2f2" d="m279.1734,77.0285l0.09732,-0.33364l0,0.16682l0.03901,0l0,-0.26678l0.07781,0l0,-0.13377l-0.04865,0l0.09731,-0.33365l0.09732,0.33365l-0.04866,0l0,0.13377l0.07781,0l0,0.26678l0.03902,0l0,-0.16682l0.09731,0.33364l-0.09731,0.33365l0,-0.16682l-0.03902,0l0,0.26677l-0.07781,0l0,0.13377l0.04866,0l-0.09732,0.33365l-0.09731,-0.33365l0.04865,0l0,-0.13377l-0.07781,0l0,-0.26677l-0.03901,0l0,0.16682l-0.09732,-0.33365z" opacity="0.8" stroke-linecap="null" stroke-linejoin="null" stroke-dasharray="null" stroke-width="0.2" fill="#ffffff"/>
  <path id="a_a_svg_153" stroke="#f9f2f2" d="m271.10504,134.10027l0.09732,-0.33364l0,0.16682l0.03901,0l0,-0.26678l0.07781,0l0,-0.13377l-0.04865,0l0.09731,-0.33365l0.09732,0.33365l-0.04866,0l0,0.13377l0.07781,0l0,0.26678l0.03902,0l0,-0.16682l0.09731,0.33364l-0.09731,0.33365l0,-0.16682l-0.03902,0l0,0.26677l-0.07781,0l0,0.13377l0.04866,0l-0.09732,0.33365l-0.09731,-0.33365l0.04865,0l0,-0.13377l-0.07781,0l0,-0.26677l-0.03901,0l0,0.16682l-0.09732,-0.33365z" opacity="0.8" stroke-linecap="null" stroke-linejoin="null" stroke-dasharray="null" stroke-width="0.2" fill="#ffffff"/>
  <path id="a_a_svg_154" stroke="#f9f2f2" d="m265.29107,90.37688l0.09732,-0.33364l0,0.16682l0.03901,0l0,-0.26678l0.07781,0l0,-0.13377l-0.04865,0l0.09731,-0.33365l0.09732,0.33365l-0.04866,0l0,0.13377l0.07781,0l0,0.26678l0.03902,0l0,-0.16682l0.09731,0.33364l-0.09731,0.33365l0,-0.16682l-0.03902,0l0,0.26677l-0.07781,0l0,0.13377l0.04866,0l-0.09732,0.33365l-0.09731,-0.33365l0.04865,0l0,-0.13377l-0.07781,0l0,-0.26677l-0.03901,0l0,0.16682l-0.09732,-0.33365z" opacity="0.8" stroke-linecap="null" stroke-linejoin="null" stroke-dasharray="null" stroke-width="0.2" fill="#ffffff"/>
  <path id="a_a_svg_155" stroke="#f9f2f2" d="m278.2835,32.35589l0.09732,-0.33364l0,0.16682l0.03901,0l0,-0.26678l0.07781,0l0,-0.13377l-0.04865,0l0.09731,-0.33365l0.09732,0.33365l-0.04866,0l0,0.13377l0.07781,0l0,0.26678l0.03902,0l0,-0.16682l0.09731,0.33364l-0.09731,0.33365l0,-0.16682l-0.03902,0l0,0.26677l-0.07781,0l0,0.13377l0.04866,0l-0.09732,0.33365l-0.09731,-0.33365l0.04865,0l0,-0.13377l-0.07781,0l0,-0.26677l-0.03901,0l0,0.16682l-0.09732,-0.33365z" opacity="0.8" stroke-linecap="null" stroke-linejoin="null" stroke-dasharray="null" stroke-width="0.2" fill="#ffffff"/>
  <path id="a_a_svg_156" stroke="#f9f2f2" d="m277.86822,141.16009l0.09732,-0.33364l0,0.16682l0.03901,0l0,-0.26678l0.07781,0l0,-0.13377l-0.04865,0l0.09731,-0.33365l0.09732,0.33365l-0.04866,0l0,0.13377l0.07781,0l0,0.26678l0.03902,0l0,-0.16682l0.09731,0.33364l-0.09731,0.33365l0,-0.16682l-0.03902,0l0,0.26677l-0.07781,0l0,0.13377l0.04866,0l-0.09732,0.33365l-0.09731,-0.33365l0.04865,0l0,-0.13377l-0.07781,0l0,-0.26677l-0.03901,0l0,0.16682l-0.09732,-0.33365z" opacity="0.8" stroke-linecap="null" stroke-linejoin="null" stroke-dasharray="null" stroke-width="0.2" fill="#ffffff"/>
  <path id="a_a_svg_157" stroke="#f9f2f2" d="m269.81439,147.60688l0.48772,0.68177l0,-0.34088l0.19549,0l0,0.54515l0.38995,0l0,0.27334l-0.24381,0l0.48766,0.6818l0.48772,-0.6818l-0.24386,0l0,-0.27334l0.38995,0l0,-0.54515l0.19554,0l0,0.34088l0.48767,-0.68177l-0.48767,-0.68179l0,0.34089l-0.19554,0l0,-0.54513l-0.38995,0l0,-0.27335l0.24386,0l-0.48772,-0.68179l-0.48766,0.68179l0.24381,0l0,0.27335l-0.38995,0l0,0.54513l-0.19549,0l0,-0.34089l-0.48772,0.68179z" opacity="0.8" stroke-linecap="null" stroke-linejoin="null" stroke-dasharray="null" stroke-width="0.2" fill="#ffffff"/>
  <path id="a_a_svg_158" stroke="#f9f2f2" transform="rotate(-1.9383249282836914 278.8190307617178,62.178619384765796) " d="m278.55624,62.17861l0.09732,-0.33364l0,0.16682l0.03901,0l0,-0.26678l0.07781,0l0,-0.13377l-0.04865,0l0.09731,-0.33365l0.09732,0.33365l-0.04866,0l0,0.13377l0.07781,0l0,0.26678l0.03902,0l0,-0.16682l0.09731,0.33364l-0.09731,0.33365l0,-0.16682l-0.03902,0l0,0.26677l-0.07781,0l0,0.13377l0.04866,0l-0.09732,0.33365l-0.09731,-0.33365l0.04865,0l0,-0.13377l-0.07781,0l0,-0.26677l-0.03901,0l0,0.16682l-0.09732,-0.33365z" opacity="0.8" stroke-linecap="null" stroke-linejoin="null" stroke-dasharray="null" stroke-width="0.2" fill="#ffffff"/>
  <path id="a_a_svg_159" stroke="#deea38" transform="rotate(-1.9383249282836914 267.494323730466,192.76208496093787) " d="m267.23153,192.76211l0.09732,-0.33364l0,0.16682l0.03901,0l0,-0.26678l0.07781,0l0,-0.13377l-0.04865,0l0.09731,-0.33365l0.09732,0.33365l-0.04866,0l0,0.13377l0.07781,0l0,0.26678l0.03902,0l0,-0.16682l0.09731,0.33364l-0.09731,0.33365l0,-0.16682l-0.03902,0l0,0.26677l-0.07781,0l0,0.13377l0.04866,0l-0.09732,0.33365l-0.09731,-0.33365l0.04865,0l0,-0.13377l-0.07781,0l0,-0.26677l-0.03901,0l0,0.16682l-0.09732,-0.33365z" opacity="0.8" stroke-linecap="null" stroke-linejoin="null" stroke-dasharray="null" stroke-width="0.2" fill="#ffffff"/>
  <path id="a_a_svg_160" stroke="#f9f2f2" transform="rotate(-1.9383249282836914 277.13153076171636,226.28799438476594) " d="m276.86874,226.28798l0.09732,-0.33364l0,0.16682l0.03901,0l0,-0.26678l0.07781,0l0,-0.13377l-0.04865,0l0.09731,-0.33365l0.09732,0.33365l-0.04866,0l0,0.13377l0.07781,0l0,0.26678l0.03902,0l0,-0.16682l0.09731,0.33364l-0.09731,0.33365l0,-0.16682l-0.03902,0l0,0.26677l-0.07781,0l0,0.13377l0.04866,0l-0.09732,0.33365l-0.09731,-0.33365l0.04865,0l0,-0.13377l-0.07781,0l0,-0.26677l-0.03901,0l0,0.16682l-0.09732,-0.33365z" opacity="0.8" stroke-linecap="null" stroke-linejoin="null" stroke-dasharray="null" stroke-width="0.2" fill="#ffffff"/>
  <path stroke="#f9f2f2" id="a_a_svg_161" transform="rotate(-1.9383249282836914 270.64251708984045,238.39425659179696) " d="m266.08398,238.39424l1.68812,-0.158l0,0.079l0.67667,0l0,-0.12634l1.3497,0l0,-0.06334l-0.84389,0l1.68795,-0.158l1.68812,0.158l-0.84406,0l0,0.06334l1.3497,0l0,0.12634l0.67684,0l0,-0.079l1.68795,0.158l-1.68795,0.158l0,-0.079l-0.67684,0l0,0.12633l-1.3497,0l0,0.06335l0.84406,0l-1.68812,0.158l-1.68795,-0.158l0.84389,0l0,-0.06335l-1.3497,0l0,-0.12633l-0.67667,0l0,0.079l-1.68812,-0.158z" opacity="0.5" stroke-linecap="null" stroke-linejoin="null" stroke-dasharray="null" stroke-width="0.2" fill="#ff007f"/>
  <path id="a_a_svg_163" stroke="#f9f2f2" transform="rotate(-1.9383249282836914 267.40203857421744,215.37194824218793) " d="m267.13925,215.37197l0.09732,-0.33364l0,0.16683l0.039,0l0,-0.2668l0.07781,0l0,-0.13376l-0.04865,0l0.09731,-0.33364l0.09732,0.33364l-0.04865,0l0,0.13376l0.07781,0l0,0.2668l0.03902,0l0,-0.16683l0.0973,0.33364l-0.0973,0.33364l0,-0.16681l-0.03902,0l0,0.26677l-0.07781,0l0,0.13378l0.04865,0l-0.09732,0.33364l-0.09731,-0.33364l0.04865,0l0,-0.13378l-0.07781,0l0,-0.26677l-0.039,0l0,0.16681l-0.09732,-0.33364z" opacity="0.8" stroke-linecap="null" stroke-linejoin="null" stroke-dasharray="null" stroke-width="0.2" fill="#ffffff"/>
  <path id="a_a_svg_178" stroke="#f9f2f2" transform="rotate(-1.9383249282836914 277.97528076171824,163.65936279296986) " d="m277.71249,163.65935l0.09732,-0.33364l0,0.16683l0.039,0l0,-0.2668l0.07781,0l0,-0.13376l-0.04865,0l0.09731,-0.33364l0.09732,0.33364l-0.04865,0l0,0.13376l0.07781,0l0,0.2668l0.03902,0l0,-0.16683l0.0973,0.33364l-0.0973,0.33364l0,-0.16681l-0.03902,0l0,0.26677l-0.07781,0l0,0.13378l0.04865,0l-0.09732,0.33364l-0.09731,-0.33364l0.04865,0l0,-0.13378l-0.07781,0l0,-0.26677l-0.039,0l0,0.16681l-0.09732,-0.33364z" opacity="0.8" stroke-linecap="null" stroke-linejoin="null" stroke-dasharray="null" stroke-width="0.2" fill="#ffffff"/>
  <path id="a_a_svg_179" stroke="#f9f2f2" transform="rotate(-1.9383249282836914 277.90277099609256,203.6253967285147) " d="m277.63999,203.62539l0.09732,-0.33364l0,0.16683l0.039,0l0,-0.2668l0.07781,0l0,-0.13376l-0.04865,0l0.09731,-0.33364l0.09732,0.33364l-0.04865,0l0,0.13376l0.07781,0l0,0.2668l0.03902,0l0,-0.16683l0.0973,0.33364l-0.0973,0.33364l0,-0.16681l-0.03902,0l0,0.26677l-0.07781,0l0,0.13378l0.04865,0l-0.09732,0.33364l-0.09731,-0.33364l0.04865,0l0,-0.13378l-0.07781,0l0,-0.26677l-0.039,0l0,0.16681l-0.09732,-0.33364z" opacity="0.8" stroke-linecap="null" stroke-linejoin="null" stroke-dasharray="null" stroke-width="0.2" fill="#ffffff"/>
  <path stroke="#ef7373" id="a_a_svg_204" fill="#ffd4aa" stroke-width="0" stroke-dasharray="null" stroke-linejoin="null" stroke-linecap="null" d="m160.19457,189.65533l6.00667,-33.57665l6.00667,33.57665l-12.01334,0l0.00001,0l-0.00001,0z" transform="rotate(-171.87158203125 166.20123291015625,172.86700439453125) "/>
  <rect stroke="#000000" id="a_a_svg_112" transform="rotate(-90.77033233642578 199.53594970703122,162.0372161865234) " opacity="0.3" height="2.40675" width="179.44897" y="160.83385" x="109.81144" stroke-linecap="null" stroke-linejoin="null" stroke-dasharray="null" stroke-width="0" fill="#e0418e"/>
  <rect stroke="#000000" id="a_a_svg_121" transform="rotate(-90.77033233642578 199.62185668945312,35.89316558837889) " opacity="0.3" height="2.40675" width="10.8956" y="34.6898" x="194.17404" stroke-linecap="null" stroke-linejoin="null" stroke-dasharray="null" stroke-width="0" fill="#e0418e"/>
  <path id="a_a_svg_207" stroke="#f9f2f2" d="m221.72064,33.38422l0.48772,0.68177l0,-0.34088l0.19549,0l0,0.54515l0.38995,0l0,0.27334l-0.24381,0l0.48766,0.6818l0.48772,-0.6818l-0.24386,0l0,-0.27334l0.38995,0l0,-0.54515l0.19554,0l0,0.34088l0.48767,-0.68177l-0.48767,-0.68179l0,0.34089l-0.19554,0l0,-0.54513l-0.38995,0l0,-0.27335l0.24386,0l-0.48772,-0.68179l-0.48766,0.68179l0.24381,0l0,0.27335l-0.38995,0l0,0.54513l-0.19549,0l0,-0.34089l-0.48772,0.68179z" opacity="0.8" stroke-linecap="null" stroke-linejoin="null" stroke-dasharray="null" stroke-width="0.2" fill="#ffffff"/>
  <path id="a_a_svg_208" d="m243.02533,51.94672l0.17526,0.36934l0,-0.18467l0.07025,0l0,0.29533l0.14013,0l0,0.14808l-0.08761,0l0.17524,0.36935l0.17526,-0.36935l-0.08763,0l0,-0.14808l0.14013,0l0,-0.29533l0.07027,0l0,0.18467l0.17524,-0.36934l-0.17524,-0.36935l0,0.18467l-0.07027,0l0,-0.29532l-0.14013,0l0,-0.14808l0.08763,0l-0.17526,-0.36935l-0.17524,0.36935l0.08761,0l0,0.14808l-0.14013,0l0,0.29532l-0.07025,0l0,-0.18467l-0.17526,0.36935z" opacity="0.8" stroke-linecap="null" stroke-linejoin="null" stroke-dasharray="null" stroke-width="0.2" fill="#ffffff" stroke="#f9f2f2"/>
  <path id="a_a_svg_209" d="m241.02142,33.91156l0.48772,0.36934l0,-0.18467l0.19549,0l0,0.29533l0.38995,0l0,0.14808l-0.24381,0l0.48766,0.36935l0.48772,-0.36935l-0.24386,0l0,-0.14808l0.38995,0l0,-0.29533l0.19554,0l0,0.18467l0.48767,-0.36934l-0.48767,-0.36935l0,0.18467l-0.19554,0l0,-0.29531l-0.38995,0l0,-0.14808l0.24386,0l-0.48772,-0.36935l-0.48766,0.36935l0.24381,0l0,0.14808l-0.38995,0l0,0.29531l-0.19549,0l0,-0.18467l-0.48772,0.36935z" opacity="0.8" stroke-linecap="null" stroke-linejoin="null" stroke-dasharray="null" stroke-width="0.2" fill="#ffffff" stroke="#f9f2f2"/>
  <path stroke="#f9f2f2" d="m250.1629,36.56805l0.09732,-0.33364l0,0.16682l0.03901,0l0,-0.26678l0.07781,0l0,-0.13377l-0.04865,0l0.09731,-0.33365l0.09732,0.33365l-0.04866,0l0,0.13377l0.07781,0l0,0.26678l0.03902,0l0,-0.16682l0.09731,0.33364l-0.09731,0.33365l0,-0.16682l-0.03902,0l0,0.26677l-0.07781,0l0,0.13377l0.04866,0l-0.09732,0.33365l-0.09731,-0.33365l0.04865,0l0,-0.13377l-0.07781,0l0,-0.26677l-0.03901,0l0,0.16682l-0.09732,-0.33365z" opacity="0.8" stroke-linecap="null" stroke-linejoin="null" stroke-dasharray="null" stroke-width="0.2" fill="#ffffff" id="a_a_svg_141"/>
  <path stroke="#f9f2f2" d="m225.12231,62.05359l0.09732,-0.33364l0,0.16682l0.03901,0l0,-0.26679l0.07781,0l0,-0.13376l-0.04865,0l0.09731,-0.33366l0.09732,0.33366l-0.04866,0l0,0.13376l0.07781,0l0,0.26679l0.03902,0l0,-0.16682l0.09731,0.33364l-0.09731,0.33364l0,-0.16682l-0.03902,0l0,0.26677l-0.07781,0l0,0.13377l0.04866,0l-0.09732,0.33366l-0.09731,-0.33366l0.04865,0l0,-0.13377l-0.07781,0l0,-0.26677l-0.03901,0l0,0.16682l-0.09732,-0.33364z" opacity="0.8" stroke-linecap="null" stroke-linejoin="null" stroke-dasharray="null" stroke-width="0.2" fill="#ffffff" id="a_a_svg_142"/>
  <path stroke="#f9f2f2" d="m227.97985,50.36139l0.09732,-0.33364l0,0.16682l0.03901,0l0,-0.26679l0.07781,0l0,-0.13376l-0.04865,0l0.09731,-0.33366l0.09732,0.33366l-0.04866,0l0,0.13376l0.07781,0l0,0.26679l0.03902,0l0,-0.16682l0.09731,0.33364l-0.09731,0.33364l0,-0.16682l-0.03902,0l0,0.26677l-0.07781,0l0,0.13377l0.04866,0l-0.09732,0.33366l-0.09731,-0.33366l0.04865,0l0,-0.13377l-0.07781,0l0,-0.26677l-0.03901,0l0,0.16682l-0.09732,-0.33364z" opacity="0.8" stroke-linecap="null" stroke-linejoin="null" stroke-dasharray="null" stroke-width="0.2" fill="#ffffff" id="a_a_svg_212"/>
  <path stroke="#f9f2f2" d="m236.24102,36.88445l0.09733,-0.33364l0,0.16682l0.039,0l0,-0.26678l0.07781,0l0,-0.13376l-0.04864,0l0.09731,-0.33366l0.09731,0.33366l-0.04866,0l0,0.13376l0.07781,0l0,0.26678l0.03902,0l0,-0.16682l0.09731,0.33364l-0.09731,0.33364l0,-0.16682l-0.03902,0l0,0.26678l-0.07781,0l0,0.13377l0.04866,0l-0.09731,0.33366l-0.09731,-0.33366l0.04864,0l0,-0.13377l-0.07781,0l0,-0.26678l-0.039,0l0,0.16682l-0.09733,-0.33364z" opacity="0.8" stroke-linecap="null" stroke-linejoin="null" stroke-dasharray="null" stroke-width="0.2" fill="#ffffff" id="a_a_svg_213"/>
  <path stroke="#f9f2f2" d="m215.04179,42.57977l0.09733,-0.33364l0,0.16682l0.039,0l0,-0.26679l0.07781,0l0,-0.13375l-0.04863,0l0.0973,-0.33367l0.09731,0.33367l-0.04865,0l0,0.13375l0.07781,0l0,0.26679l0.03902,0l0,-0.16682l0.0973,0.33364l-0.0973,0.33364l0,-0.16682l-0.03902,0l0,0.26677l-0.07781,0l0,0.13377l0.04865,0l-0.09731,0.33367l-0.0973,-0.33367l0.04863,0l0,-0.13377l-0.07781,0l0,-0.26677l-0.039,0l0,0.16682l-0.09733,-0.33364z" opacity="0.8" stroke-linecap="null" stroke-linejoin="null" stroke-dasharray="null" stroke-width="0.2" fill="#ffffff" id="a_a_svg_214"/>
  <path stroke="#f9f2f2" d="m212.71325,63.03742l0.09732,-0.33364l0,0.16682l0.03901,0l0,-0.26679l0.07781,0l0,-0.13376l-0.04865,0l0.09731,-0.33366l0.09732,0.33366l-0.04866,0l0,0.13376l0.07781,0l0,0.26679l0.03902,0l0,-0.16682l0.09731,0.33364l-0.09731,0.33364l0,-0.16682l-0.03902,0l0,0.26677l-0.07781,0l0,0.13377l0.04866,0l-0.09732,0.33366l-0.09731,-0.33366l0.04865,0l0,-0.13377l-0.07781,0l0,-0.26677l-0.03901,0l0,0.16682l-0.09732,-0.33364z" opacity="0.8" stroke-linecap="null" stroke-linejoin="null" stroke-dasharray="null" stroke-width="0.2" fill="#ffffff" id="a_a_svg_215"/>
  <path fill="#fcc694" stroke-dasharray="null" stroke-linejoin="null" stroke-linecap="null" d="m168.53813,149.08955c7.5982,-30.17065 37.36818,0 0,38.79084c-37.36818,-38.79084 -7.5982,-68.96149 0,-38.79084z" id="a_a_svg_108" stroke="#fcbdbd"/>
  <rect fill="#ffd4aa" stroke-width="0" stroke-dasharray="null" stroke-linejoin="null" stroke-linecap="null" x="151.17184" y="135.90624" width="17.29688" height="58.21875" id="a_a_svg_203" stroke="#ef7373"/>
  <rect stroke="#000000" transform="rotate(-48.07158660888672 172.5369262695313,186.88088989257812) " id="a_a_svg_139" height="5.97926" width="8.08415" y="183.89127" x="168.49485" stroke-linecap="null" stroke-linejoin="null" stroke-dasharray="null" stroke-width="0" fill="#ffd4aa"/>
  <path fill="#ffd4aa" stroke-width="0" stroke-dasharray="null" stroke-linejoin="null" stroke-linecap="null" d="m166.92808,151.0753c6.87053,-24.68868 33.78943,0 0,31.74259c-33.78942,-31.74259 -6.87052,-56.43126 0,-31.74259z" id="a_a_svg_205" stroke="#ef7373"/>
  <path id="a_a_svg_9" d="m160.91717,126.60644c0,0 -7.54262,-1.19675 -1.00568,-3.88944c6.53694,-2.69269 6.53694,-4.787 6.48108,-4.8424c-0.05585,-0.0554 8.35273,-2.3381 3.82716,6.18875c-4.52557,8.52684 -6.78835,15.85694 -8.04546,11.36912c-1.2571,-4.48781 -1.2571,-8.82603 -1.2571,-8.82603l0,0z" opacity="0.03" stroke-linecap="null" stroke-linejoin="null" stroke-dasharray="null" stroke-width="0" fill="#000000" stroke="#ef7373"/>
  <path fill="#f9c18b" stroke-width="0" stroke-dasharray="null" stroke-linejoin="null" stroke-linecap="null" d="m167.79573,152.30679c5.57721,-22.79646 27.42886,0 0,29.30974c-27.42885,-29.30974 -5.57719,-52.1062 0,-29.30974z" id="a_a_svg_219" stroke="#ef7373"/>
  <ellipse fill="#fcc694" stroke-width="0.2" stroke-dasharray="null" stroke-linejoin="null" stroke-linecap="null" cx="171.13384" cy="177.85452" rx="5.65313" ry="5.68326" stroke="#fcbdbd" id="a_a_svg_223"/>
  <path fill="#ffd4aa" stroke-width="0" stroke-dasharray="null" stroke-linejoin="null" stroke-linecap="null" d="m164.35852,153.34453c6.87053,-24.68867 33.78943,0 0,31.74259c-33.78942,-31.74259 -6.87051,-56.43126 0,-31.74259z" stroke="#ef7373" id="a_a_svg_220"/>
  <rect fill="#ffd4aa" stroke-width="0" stroke-dasharray="null" stroke-linejoin="null" stroke-linecap="null" x="150.37094" y="140.17772" width="17.29688" height="55.41559" id="a_a_svg_221" stroke="#ef7373" transform="rotate(5.131202697753906 159.01937866210946,167.88551330566406) "/>
  <ellipse fill="#ffd4aa" stroke-width="0" stroke-dasharray="null" stroke-linejoin="null" stroke-linecap="null" cx="170.29956" cy="176.04414" id="a_a_svg_222" rx="5.51965" ry="6.08371" stroke="#d4aaff"/>
  <path d="m171.31082,159.9462c0,0 -4.69356,-0.93974 -0.62581,-3.05414c4.06775,-2.11441 4.06775,-3.75894 4.03299,-3.80245c-0.03475,-0.0435 5.19767,-1.83597 2.38153,4.85965c-2.81613,6.69562 -4.2242,12.4515 -5.00646,8.92749c-0.78226,-3.52401 -0.78226,-6.93055 -0.78226,-6.93055l0,0l0.00001,0z" opacity="0.09" stroke-linecap="null" stroke-linejoin="null" stroke-dasharray="null" stroke-width="0" fill="#000000" id="a_a_svg_224" transform="rotate(-3.1652960777282715 173.47924804687554,160.3932189941407) " stroke="#281616"/>
  <path d="m186.28314,41.29438l0.31196,0.56461l0,-0.2823l0.12504,0l0,0.45147l0.24942,0l0,0.22637l-0.15595,0l0.31192,0.56463l0.31196,-0.56463l-0.15598,0l0,-0.22637l0.24942,0l0,-0.45147l0.12507,0l0,0.2823l0.31193,-0.56461l-0.31193,-0.56462l0,0.28231l-0.12507,0l0,-0.45145l-0.24942,0l0,-0.22637l0.15598,0l-0.31196,-0.56462l-0.31192,0.56462l0.15595,0l0,0.22637l-0.24942,0l0,0.45145l-0.12504,0l0,-0.28231l-0.31196,0.56462z" opacity="0.7" stroke-linecap="null" stroke-linejoin="null" stroke-dasharray="null" stroke-width="0.2" fill="#ffffff" id="a_a_svg_226" stroke="#f9f2f2"/>
  <path d="m75.33006,80.10688l0.17543,0.36934l0,-0.18467l0.07032,0l0,0.29533l0.14026,0l0,0.14808l-0.08769,0l0.17541,0.36935l0.17543,-0.36935l-0.08771,0l0,-0.14808l0.14026,0l0,-0.29533l0.07034,0l0,0.18467l0.17541,-0.36934l-0.17541,-0.36935l0,0.18467l-0.07034,0l0,-0.29532l-0.14026,0l0,-0.14808l0.08771,0l-0.17543,-0.36935l-0.17541,0.36935l0.08769,0l0,0.14808l-0.14026,0l0,0.29532l-0.07032,0l0,-0.18467l-0.17543,0.36935z" opacity="0.4" stroke-linecap="null" stroke-linejoin="null" stroke-dasharray="null" stroke-width="0.2" fill="#ffffff" id="a_a_svg_227" stroke="#f9f2f2"/>
  <path stroke="#f9f2f2" d="m192.1419,98.38591l0.09732,-0.33364l0,0.16682l0.03901,0l0,-0.26678l0.07781,0l0,-0.13377l-0.04865,0l0.09731,-0.33365l0.09732,0.33365l-0.04866,0l0,0.13377l0.07781,0l0,0.26678l0.03902,0l0,-0.16682l0.09731,0.33364l-0.09731,0.33365l0,-0.16682l-0.03902,0l0,0.26677l-0.07781,0l0,0.13377l0.04866,0l-0.09732,0.33365l-0.09731,-0.33365l0.04865,0l0,-0.13377l-0.07781,0l0,-0.26677l-0.03901,0l0,0.16682l-0.09732,-0.33365z" opacity="0.8" stroke-linecap="null" stroke-linejoin="null" stroke-dasharray="null" stroke-width="0.2" fill="#ffffff" id="a_a_svg_228"/>
  <path d="m138.8098,51.43473l0.14288,-0.34015l0,0.17008l0.05727,0l0,-0.27199l0.11423,0l0,-0.13638l-0.07142,0l0.14286,-0.34016l0.14288,0.34016l-0.07144,0l0,0.13638l0.11423,0l0,0.27199l0.05729,0l0,-0.17008l0.14286,0.34015l-0.14286,0.34016l0,-0.17008l-0.05729,0l0,0.27198l-0.11423,0l0,0.13638l0.07144,0l-0.14288,0.34016l-0.14286,-0.34016l0.07142,0l0,-0.13638l-0.11423,0l0,-0.27198l-0.05727,0l0,0.17008l-0.14288,-0.34016z" opacity="0.75" stroke-linecap="null" stroke-linejoin="null" stroke-dasharray="null" stroke-width="0.2" fill="#ffffff" id="a_a_svg_229" stroke="#f9f2f2"/>
  <path d="m83.40356,35.87809l0.26168,-0.53867l0,0.26934l0.10489,0l0,-0.43073l0.20922,0l0,-0.21597l-0.13081,0l0.26165,-0.53869l0.26168,0.53869l-0.13084,0l0,0.21597l0.20922,0l0,0.43073l0.10492,0l0,-0.26934l0.26165,0.53867l-0.26165,0.53869l0,-0.26934l-0.10492,0l0,0.43071l-0.20922,0l0,0.21598l0.13084,0l-0.26168,0.53869l-0.26165,-0.53869l0.13081,0l0,-0.21598l-0.20922,0l0,-0.43071l-0.10489,0l0,0.26934l-0.26168,-0.53869z" opacity="0.8" stroke-linecap="null" stroke-linejoin="null" stroke-dasharray="null" stroke-width="0.2" fill="#00ffff" id="a_a_svg_230" stroke="#f9f2f2"/>
  <path d="m161.45044,240.7819l0.27306,-0.34178l0,0.17089l0.10945,0l0,-0.27329l0.21832,0l0,-0.13703l-0.1365,0l0.27304,-0.34179l0.27306,0.34179l-0.13653,0l0,0.13703l0.21832,0l0,0.27329l0.10948,0l0,-0.17089l0.27304,0.34178l-0.27304,0.34179l0,-0.17089l-0.10948,0l0,0.27328l-0.21832,0l0,0.13704l0.13653,0l-0.27306,0.34179l-0.27304,-0.34179l0.1365,0l0,-0.13704l-0.21832,0l0,-0.27328l-0.10945,0l0,0.17089l-0.27306,-0.34179z" opacity="0.5" stroke-linecap="null" stroke-linejoin="null" stroke-dasharray="null" stroke-width="0.2" fill="#ffffff" id="a_a_svg_231" stroke="#f9f2f2"/>
  <path d="m77.98949,238.11443l0.57414,-0.56147l0,0.28074l0.23013,0l0,-0.44896l0.45904,0l0,-0.22511l-0.287,0l0.57407,-0.56148l0.57413,0.56148l-0.28706,0l0,0.22511l0.45903,0l0,0.44896l0.2302,0l0,-0.28074l0.57407,0.56147l-0.57407,0.56148l0,-0.28074l-0.2302,0l0,0.44893l-0.45903,0l0,0.22511l0.28706,0l-0.57413,0.56148l-0.57407,-0.56148l0.287,0l0,-0.22511l-0.45904,0l0,-0.44893l-0.23013,0l0,0.28074l-0.57414,-0.56148z" opacity="0.8" stroke-linecap="null" stroke-linejoin="null" stroke-dasharray="null" stroke-width="0.2" fill="#d38383" id="a_a_svg_232" stroke="#f9f2f2"/>
  <path d="m85.77145,105.02387l0.30726,0.36934l0,-0.18467l0.12314,0l0,0.29533l0.24568,0l0,0.14808l-0.1536,0l0.30722,0.36935l0.30724,-0.36935l-0.15362,0l0,-0.14808l0.24566,0l0,-0.29533l0.1232,0l0,0.18467l0.30722,-0.36934l-0.30722,-0.36935l0,0.18467l-0.1232,0l0,-0.29532l-0.24566,0l0,-0.14808l0.15362,0l-0.30724,-0.36935l-0.30722,0.36935l0.1536,0l0,0.14808l-0.24568,0l0,0.29532l-0.12314,0l0,-0.18467l-0.30726,0.36935z" opacity="0.8" stroke-linecap="null" stroke-linejoin="null" stroke-dasharray="null" stroke-width="0.2" fill="#ffffff" id="a_a_svg_233" stroke="#f9f2f2"/>
  <path fill="#000000" stroke="#ef7373" stroke-width="0" stroke-dasharray="null" stroke-linejoin="null" stroke-linecap="null" opacity="0.08" d="m98.97142,175.99591c0,0 2.93665,-4.53845 -1.73529,-4.40497c-4.67194,0.13348 -8.54297,2.00226 -8.55101,1.9696c-0.00805,-0.03265 4.67998,-3.17096 4.67194,-3.20361c-0.00805,-0.03265 6.54876,-2.37006 6.54876,1.23401c0,3.60406 -0.93439,4.40497 -0.93439,4.40497l-0.00001,0z" id="a_a_svg_234" transform="rotate(32.78056716918945 94.29545593261719,172.788818359375) "/>
  <path d="m194.88401,200.2951l0.33654,-0.80235l0,0.40118l0.1349,0l0,-0.64157l0.26907,0l0,-0.3217l-0.16823,0l0.3365,-0.80238l0.33654,0.80238l-0.16827,0l0,0.3217l0.26907,0l0,0.64157l0.13493,0l0,-0.40118l0.3365,0.80235l-0.3365,0.80238l0,-0.40118l-0.13493,0l0,0.64154l-0.26907,0l0,0.3217l0.16827,0l-0.33654,0.80238l-0.3365,-0.80238l0.16823,0l0,-0.3217l-0.26907,0l0,-0.64154l-0.1349,0l0,0.40118l-0.33654,-0.80238z" opacity="0.8" stroke-linecap="null" stroke-linejoin="null" stroke-dasharray="null" stroke-width="0.2" fill="#ff00ff" id="a_a_svg_235" stroke="#f9f2f2"/>
  <ellipse fill="#007fff" stroke-width="0.2" stroke-dasharray="null" stroke-linejoin="null" stroke-linecap="null" opacity="0.4" cx="160.81909" cy="37.2643" id="a_a_svg_236" rx="1.25635" ry="1.3202" transform="rotate(11.544503211975098 160.81909179687503,37.26430511474616) " stroke="#0000bf"/>
  <rect fill="#ffffff" stroke-width="0" stroke-dasharray="null" stroke-linejoin="null" stroke-linecap="null" x="105.12749" y="200.45604" width="4.0731" height="0.9761" id="a_a_svg_241" transform="rotate(-5.440204620361328 107.16404724121027,200.94409179687503) " stroke="#d4aaff"/>
  <rect fill="#ffffff" stroke-width="0" stroke-dasharray="null" stroke-linejoin="null" stroke-linecap="null" x="288.51852" y="267.72897" width="15.12817" height="2.37305" id="a_a_svg_243" stroke="#000000"/>
  <path id="a_a_svg_19" d="m94.72972,88.29389l0.17543,0.36934l0,-0.18467l0.07032,0l0,0.29533l0.14026,0l0,0.14808l-0.08769,0l0.17541,0.36935l0.17543,-0.36935l-0.08771,0l0,-0.14808l0.14026,0l0,-0.29533l0.07034,0l0,0.18467l0.17541,-0.36934l-0.17541,-0.36935l0,0.18467l-0.07034,0l0,-0.29532l-0.14026,0l0,-0.14808l0.08771,0l-0.17543,-0.36935l-0.17541,0.36935l0.08769,0l0,0.14808l-0.14026,0l0,0.29532l-0.07032,0l0,-0.18467l-0.17543,0.36935z" opacity="0.4" stroke-linecap="null" stroke-linejoin="null" stroke-dasharray="null" stroke-width="0.2" fill="#ffffff" stroke="#f9f2f2"/>
  <path id="a_a_svg_32" d="m75.33006,139.90766l0.17543,0.36934l0,-0.18467l0.07032,0l0,0.29533l0.14026,0l0,0.14808l-0.08769,0l0.17541,0.36935l0.17543,-0.36935l-0.08771,0l0,-0.14808l0.14026,0l0,-0.29533l0.07034,0l0,0.18467l0.17541,-0.36934l-0.17541,-0.36935l0,0.18467l-0.07034,0l0,-0.29532l-0.14026,0l0,-0.14808l0.08771,0l-0.17543,-0.36935l-0.17541,0.36935l0.08769,0l0,0.14808l-0.14026,0l0,0.29532l-0.07032,0l0,-0.18467l-0.17543,0.36935z" opacity="0.4" stroke-linecap="null" stroke-linejoin="null" stroke-dasharray="null" stroke-width="0.2" fill="#ffffff" stroke="#f9f2f2"/>
  <path id="a_a_svg_56" stroke="#f9f2f2" d="m186.13018,70.22575l0.09732,-0.33364l0,0.16682l0.03901,0l0,-0.26678l0.07781,0l0,-0.13377l-0.04865,0l0.09731,-0.33365l0.09732,0.33365l-0.04866,0l0,0.13377l0.07781,0l0,0.26678l0.03902,0l0,-0.16682l0.09731,0.33364l-0.09731,0.33365l0,-0.16682l-0.03902,0l0,0.26677l-0.07781,0l0,0.13377l0.04866,0l-0.09732,0.33365l-0.09731,-0.33365l0.04865,0l0,-0.13377l-0.07781,0l0,-0.26677l-0.03901,0l0,0.16682l-0.09732,-0.33365z" opacity="0.8" stroke-linecap="null" stroke-linejoin="null" stroke-dasharray="null" stroke-width="0.2" fill="#ffffff"/>
  <path id="a_a_svg_84" stroke="#f9f2f2" d="m195.93878,163.56559l0.09731,-0.33364l0,0.16682l0.03902,0l0,-0.26677l0.07781,0l0,-0.13377l-0.04866,0l0.09731,-0.33365l0.09733,0.33365l-0.04867,0l0,0.13377l0.07781,0l0,0.26677l0.03903,0l0,-0.16682l0.09731,0.33364l-0.09731,0.33366l0,-0.16682l-0.03903,0l0,0.26677l-0.07781,0l0,0.13377l0.04867,0l-0.09733,0.33365l-0.09731,-0.33365l0.04866,0l0,-0.13377l-0.07781,0l0,-0.26677l-0.03902,0l0,0.16682l-0.09731,-0.33366z" opacity="0.8" stroke-linecap="null" stroke-linejoin="null" stroke-dasharray="null" stroke-width="0.2" fill="#ffffff"/>
  <path stroke="#000000" transform="rotate(-3.184762954711914 98.85551452636766,139.05482482910145) " id="a_a_svg_217" d="m93.66608,146.29323l4.26344,-10.59418l1.06787,-3.88263c0,0 5.88134,2.5811 4.94695,6.54633c-0.93439,3.96524 -10.27826,7.93048 -10.27826,7.93048z" stroke-linecap="null" stroke-linejoin="null" stroke-dasharray="null" stroke-width="0" fill="#fccea4"/>
  <ellipse stroke="#dd75dd" transform="rotate(94.9696044921875 172.98541259765628,183.19845581054688) " ry="1.89064" rx="4.37968" id="a_a_svg_218" cy="183.19847" cx="172.98542" stroke-linecap="null" stroke-linejoin="null" stroke-dasharray="null" stroke-width="2" fill="none"/>
  <path stroke="#ef7373" transform="rotate(5.2367262840271 174.28256225585986,180.19622802734375) " id="a_a_svg_244" d="m173.31366,181.59024c0,0 1.48198,-0.99802 1.83068,-2.20616c0.3487,-1.20814 -0.26153,-0.21011 -0.30511,0.10506c-0.04359,0.31517 -1.52557,2.1011 -1.52557,2.1011z" stroke-linecap="null" stroke-linejoin="null" stroke-dasharray="null" stroke-width="0" fill="#fcc694"/>
  <path stroke="#d4aaff" transform="rotate(62.32984161376953 174.03332519531247,178.86282348632812) " id="a_a_svg_225" d="m172.38136,180.63513l0,-3.54463l3.30389,3.54463l-3.30389,0z" stroke-linecap="null" stroke-linejoin="null" stroke-dasharray="null" stroke-width="0" fill="#ffd4aa"/>
  <ellipse stroke="#d4aaff" transform="rotate(37.93192672729492 174.13119506835935,179.67947387695312) " id="a_a_svg_237" fill="#ffd4aa" stroke-width="0" stroke-dasharray="null" stroke-linejoin="null" stroke-linecap="null" cx="174.13117" cy="179.67946" rx="0.61378" ry="1.42656"/>
  <rect stroke="#d4aaff" id="a_a_svg_239" height="0.97406" width="1.06908" y="178.00561" x="173.75947" stroke-linecap="null" stroke-linejoin="null" stroke-dasharray="null" stroke-width="0" fill="#ffd4aa"/>
  <ellipse stroke="#8e088e" transform="rotate(28.6865291595459 172.3015747070313,179.26641845703125) " ry="0.84588" rx="1.04417" id="a_a_svg_249" cy="179.26642" cx="172.3016" stroke-linecap="null" stroke-linejoin="null" stroke-dasharray="null" stroke-width="0" fill="#fc3ffc"/>
  <path id="a_a_svg_242" d="m173.33185,181.16267c0,0 1.43599,-0.80246 1.77387,-1.77387c0.33788,-0.97141 -0.25341,-0.16894 -0.29564,0.08447c-0.04224,0.25341 -1.47823,1.6894 -1.47823,1.6894z" stroke-linecap="null" stroke-linejoin="null" stroke-dasharray="null" stroke-width="0" stroke="#ef7373" fill="#ffd4aa"/>
  <path id="a_a_svg_245" stroke="#ef7373" transform="rotate(6.234584808349609 174.87652587890645,181.50286865234375) " d="m173.90759,182.89689c0,0 1.48198,-0.99802 1.83068,-2.20616c0.3487,-1.20814 -0.26153,-0.21011 -0.30511,0.10506c-0.04359,0.31516 -1.52557,2.1011 -1.52557,2.1011z" stroke-linecap="null" stroke-linejoin="null" stroke-dasharray="null" stroke-width="0" fill="#fcc694"/>
  <rect stroke="#000000" transform="rotate(-41.93450927734375 174.70864868164062,180.86328124999997) " id="a_a_svg_246" height="0.9219" width="2.907" y="180.40234" x="173.25514" stroke-linecap="null" stroke-linejoin="null" stroke-dasharray="null" stroke-width="0" fill="#fcc694"/>
  <rect stroke="#000000" id="a_a_svg_247" transform="rotate(-148.1436309814453 175.24789428710938,179.80560302734372) " height="0.92976" width="0.40237" y="179.34074" x="175.04673" stroke-linecap="null" stroke-linejoin="null" stroke-dasharray="null" stroke-width="0" fill="#fcc694"/>
  <rect stroke="#000000" id="a_a_svg_248" transform="rotate(-136.1361083984375 174.68798828124994,181.51135253906247) " height="2.56067" width="0.51087" y="180.23103" x="174.43256" stroke-linecap="null" stroke-linejoin="null" stroke-dasharray="null" stroke-width="0" fill="#fcc694"/>
  <path stroke="#f9f2f2" id="a_a_svg_250" d="m161.92502,47.62248l0.16322,-0.20183l0,0.10092l0.06543,0l0,-0.16139l0.1305,0l0,-0.08092l-0.0816,0l0.16321,-0.20184l0.16322,0.20184l-0.08161,0l0,0.08092l0.1305,0l0,0.16139l0.06544,0l0,-0.10092l0.16321,0.20183l-0.16321,0.20184l0,-0.10092l-0.06544,0l0,0.16138l-0.1305,0l0,0.08092l0.08161,0l-0.16322,0.20184l-0.16321,-0.20184l0.0816,0l0,-0.08092l-0.1305,0l0,-0.16138l-0.06543,0l0,0.10092l-0.16322,-0.20184z" opacity="0.5" stroke-linecap="null" stroke-linejoin="null" stroke-dasharray="null" stroke-width="0.2" fill="#ffffff"/>
  <path stroke="#f9f2f2" id="a_a_svg_251" d="m80.07614,59.1944l0.20839,0.20458l0,-0.10229l0.08352,0l0,0.16359l0.16663,0l0,0.08202l-0.10418,0l0.20837,0.20459l0.20838,-0.20459l-0.10419,0l0,-0.08202l0.16662,0l0,-0.16359l0.08356,0l0,0.10229l0.20837,-0.20458l-0.20837,-0.20459l0,0.10229l-0.08356,0l0,-0.16358l-0.16662,0l0,-0.08202l0.10419,0l-0.20838,-0.20459l-0.20837,0.20459l0.10418,0l0,0.08202l-0.16663,0l0,0.16358l-0.08352,0l0,-0.10229l-0.20839,0.20459z" opacity="0.8" stroke-linecap="null" stroke-linejoin="null" stroke-dasharray="null" stroke-width="0.2" fill="#ffffff"/>
  <path stroke="#f9f2f2" id="a_a_svg_252" d="m85.26683,218.73454l0.22262,-0.38572l0,0.19287l0.08923,0l0,-0.30843l0.17799,0l0,-0.15465l-0.11128,0l0.2226,-0.38573l0.22262,0.38573l-0.11131,0l0,0.15465l0.17799,0l0,0.30843l0.08926,0l0,-0.19287l0.2226,0.38572l-0.2226,0.38573l0,-0.19287l-0.08926,0l0,0.30841l-0.17799,0l0,0.15465l0.11131,0l-0.22262,0.38573l-0.2226,-0.38573l0.11128,0l0,-0.15465l-0.17799,0l0,-0.30841l-0.08923,0l0,0.19287l-0.22262,-0.38573z" opacity="0.5" stroke-linecap="null" stroke-linejoin="null" stroke-dasharray="null" stroke-width="0.2" fill="#ffffff"/>
  <path stroke="#f9f2f2" id="a_a_svg_253" d="m95.39183,245.07535l0.3105,-0.29785l0,0.14893l0.12446,0l0,-0.23817l0.24825,0l0,-0.11942l-0.15521,0l0.31046,-0.29786l0.3105,0.29786l-0.15525,0l0,0.11942l0.24825,0l0,0.23817l0.12449,0l0,-0.14893l0.31046,0.29785l-0.31046,0.29786l0,-0.14893l-0.12449,0l0,0.23815l-0.24825,0l0,0.11942l0.15525,0l-0.3105,0.29786l-0.31046,-0.29786l0.15521,0l0,-0.11942l-0.24825,0l0,-0.23815l-0.12446,0l0,0.14893l-0.3105,-0.29786z" opacity="0.45" stroke-linecap="null" stroke-linejoin="null" stroke-dasharray="null" stroke-width="0.2" fill="#ffffaa"/>
  <path stroke="#f9f2f2" id="a_a_svg_254" d="m79.57153,191.20719l-0.26072,-0.38572l0,0.19287l-0.1045,0l0,-0.30843l-0.20845,0l0,-0.15465l0.13032,0l-0.26068,-0.38573l-0.26071,0.38573l0.13036,0l0,0.15465l-0.20845,0l0,0.30843l-0.10453,0l0,-0.19287l-0.26069,0.38572l0.26069,0.38573l0,-0.19286l0.10453,0l0,0.30841l0.20845,0l0,0.15465l-0.13036,0l0.26071,0.38573l0.26068,-0.38573l-0.13032,0l0,-0.15465l0.20845,0l0,-0.30841l0.1045,0l0,0.19286l0.26072,-0.38573z" opacity="0.3" stroke-linecap="null" stroke-linejoin="null" stroke-dasharray="null" stroke-width="0.2" fill="#ffffff"/>
  <path id="a_a_svg_255" stroke="#f9f2f2" d="m192.94383,212.50529l0.22262,-0.38572l0,0.19286l0.08924,0l0,-0.30843l0.17799,0l0,-0.15465l-0.11129,0l0.2226,-0.38573l0.22262,0.38573l-0.11131,0l0,0.15465l0.17799,0l0,0.30843l0.08926,0l0,-0.19286l0.2226,0.38572l-0.2226,0.38573l0,-0.19287l-0.08926,0l0,0.30841l-0.17799,0l0,0.15465l0.11131,0l-0.22262,0.38573l-0.2226,-0.38573l0.11129,0l0,-0.15465l-0.17799,0l0,-0.30841l-0.08924,0l0,0.19287l-0.22262,-0.38573z" opacity="0.5" stroke-linecap="null" stroke-linejoin="null" stroke-dasharray="null" stroke-width="0.2" fill="#ffffff"/>
  <path id="a_a_svg_256" stroke="#f9f2f2" d="m179.57567,234.7526l0.3105,-0.29785l0,0.14893l0.12446,0l0,-0.23816l0.24825,0l0,-0.11942l-0.15521,0l0.31046,-0.29785l0.3105,0.29785l-0.15525,0l0,0.11942l0.24825,0l0,0.23816l0.1245,0l0,-0.14893l0.31046,0.29785l-0.31046,0.29786l0,-0.14893l-0.1245,0l0,0.23815l-0.24825,0l0,0.11942l0.15525,0l-0.3105,0.29785l-0.31046,-0.29785l0.15521,0l0,-0.11942l-0.24825,0l0,-0.23815l-0.12446,0l0,0.14893l-0.3105,-0.29786z" opacity="0.45" stroke-linecap="null" stroke-linejoin="null" stroke-dasharray="null" stroke-width="0.2" fill="#ffffaa"/>
  <path id="a_a_svg_257" stroke="#f9f2f2" d="m180.30737,216.12418l-0.26072,-0.38572l0,0.19287l-0.1045,0l0,-0.30843l-0.20845,0l0,-0.15465l0.13032,0l-0.26067,-0.38573l-0.26072,0.38573l0.13036,0l0,0.15465l-0.20845,0l0,0.30843l-0.10453,0l0,-0.19287l-0.26069,0.38572l0.26069,0.38573l0,-0.19286l0.10453,0l0,0.30841l0.20845,0l0,0.15465l-0.13036,0l0.26072,0.38573l0.26067,-0.38573l-0.13032,0l0,-0.15465l0.20845,0l0,-0.30841l0.1045,0l0,0.19286l0.26072,-0.38573z" opacity="0.3" stroke-linecap="null" stroke-linejoin="null" stroke-dasharray="null" stroke-width="0.2" fill="#ffffff"/>
  <path id="a_a_svg_258" stroke="#f9f2f2" d="m141.84422,236.88834l0.3105,-0.29785l0,0.14893l0.12446,0l0,-0.23816l0.24825,0l0,-0.11942l-0.15521,0l0.31046,-0.29785l0.3105,0.29785l-0.15525,0l0,0.11942l0.24825,0l0,0.23816l0.1245,0l0,-0.14893l0.31046,0.29785l-0.31046,0.29786l0,-0.14893l-0.1245,0l0,0.23815l-0.24825,0l0,0.11942l0.15525,0l-0.3105,0.29785l-0.31046,-0.29785l0.15521,0l0,-0.11942l-0.24825,0l0,-0.23815l-0.12446,0l0,0.14893l-0.3105,-0.29786z" opacity="0.45" stroke-linecap="null" stroke-linejoin="null" stroke-dasharray="null" stroke-width="0.2" fill="#ffffaa"/>
  <ellipse stroke="#000000" transform="rotate(14.21713638305664 173.51306152343741,184.91925048828125) " ry="2.03248" rx="0.43517" id="a_a_svg_259" cy="184.91927" cx="173.51305" opacity="0.3" stroke-linecap="null" stroke-linejoin="null" stroke-dasharray="null" stroke-width="0" fill="#8116fc"/>
  <ellipse stroke="#d4aaff" transform="rotate(12.069290161132812 173.1855773925784,184.85278320312506) " id="a_a_svg_260" fill="#ffd4aa" stroke-width="0" stroke-dasharray="null" stroke-linejoin="null" stroke-linecap="null" cx="173.18557" cy="184.85279" rx="0.55461" ry="1.73772"/>
  <path stroke="#d4aaff" transform="rotate(-176.56565856933594 173.74417114257812,183.60675048828125) " id="a_a_svg_261" d="m173.61474,184.19264l0,-1.17175l0.25888,1.17175l-0.25888,0z" stroke-linecap="null" stroke-linejoin="null" stroke-dasharray="null" stroke-width="0" fill="#ffd4aa"/>
  <ellipse id="a_a_svg_262" stroke="#8e088e" transform="rotate(28.6865291595459 172.1265258789061,179.65725708007815) " ry="1.04815" rx="1.06888" cy="179.65727" cx="172.12653" stroke-linecap="null" stroke-linejoin="null" stroke-dasharray="null" stroke-width="0" fill="#dd75dd"/>
 </g>
</svg>
